<svg xmlns="http://www.w3.org/2000/svg" xmlns:xlink="http://www.w3.org/1999/xlink" viewBox="0 0 363.64 210.04"><defs><style>.cls-1,.cls-5{fill:none;}.cls-2{fill:#180807;}.cls-3{fill:#ceab5b;}.cls-4{fill:#9f8b5c;}.cls-5{stroke:#080202;stroke-miterlimit:10;}.cls-6{clip-path:url(#clip-path);}</style><clipPath id="clip-path"><rect class="cls-1" x="3.64" y="10.04" width="360" height="200"/></clipPath></defs><title>isologo-daps</title><g id="Capa_2" data-name="Capa 2"><g id="Capa_1-2" data-name="Capa 1"><rect class="cls-2" x="3.64" y="10.04" width="360" height="200"/><polygon class="cls-2" points="107.81 109.03 89.61 108.02 103.77 127.23 89.61 144.41 121.97 145.43 107.81 109.03"/><path class="cls-3" d="M254.68,91.66H112.91l.77-2.59a73.19,73.19,0,0,1,140.23,0Z"/><path class="cls-2" d="M118.36,87.64H249.22a69.17,69.17,0,0,0-130.86,0Z"/><polygon class="cls-2" points="247.34 145.43 276.66 145.43 262.51 126.22 276.66 109.03 244.31 108.02 247.34 145.43"/><path class="cls-3" d="M155.11,52.75a2.41,2.41,0,0,1,1.56,1.36,1.78,1.78,0,0,1-.13,2,1.65,1.65,0,0,1,1.23.3,2.48,2.48,0,0,1,.82.87q1.21,2.32-1.43,3.69l-3.35,1.75-4.1-7.87L153,53.09A2.94,2.94,0,0,1,155.11,52.75Zm-2.45,4.57,2-1.06q1.11-.58.67-1.42a1.11,1.11,0,0,0-.62-.52,1.19,1.19,0,0,0-1,.13l-2,1.06Zm1.73,3.33,2-1.06a2.59,2.59,0,0,0,.55-.38,1.26,1.26,0,0,0,.35-.56.87.87,0,0,0-.07-.69,1,1,0,0,0-.84-.56,1.76,1.76,0,0,0-1,.17l-2,1.06Z"/><path class="cls-3" d="M165.94,55.57,162,56.93l-.1,1.8-1.54.53.48-9.55,1.55-.53,6.27,7.22-1.55.53Zm-3.71-4.36-.16,4.05,2.79-1Z"/><path class="cls-3" d="M176.82,54.91l-1.69.31-2.8-2.5-1.5.27.53,2.92-1.48.27-1.6-8.74,1.86-.33,1.87-.33a2.71,2.71,0,0,1,2.23.48,3,3,0,0,1,1.12,1.9,3.3,3.3,0,0,1-.15,1.84,2.31,2.31,0,0,1-1.33,1.27l2.92,2.55ZM170,48.71l.51,2.79,2.25-.41a1.25,1.25,0,0,0,.93-.59,1.52,1.52,0,0,0,.16-1,1.5,1.5,0,0,0-.53-.92,1.25,1.25,0,0,0-1.07-.23Z"/><path class="cls-3" d="M183.81,46.39a2.4,2.4,0,0,1,.81,1.9,1.78,1.78,0,0,1-1,1.75,1.66,1.66,0,0,1,1,.8A2.48,2.48,0,0,1,185,52q.09,2.61-2.89,2.71l-3.77.13-.3-8.87,3.77-.13A2.94,2.94,0,0,1,183.81,46.39Zm-4.19,3.06,2.3-.08q1.25,0,1.22-1a1.11,1.11,0,0,0-.33-.73,1.19,1.19,0,0,0-1-.32l-2.3.08Zm.13,3.75,2.3-.08a2.61,2.61,0,0,0,.66-.1,1.26,1.26,0,0,0,.56-.35.87.87,0,0,0,.23-.65,1,1,0,0,0-.51-.87,1.76,1.76,0,0,0-1-.3l-2.3.08Z"/><path class="cls-3" d="M192.73,55.32l-5.93-.63.94-8.83,5.93.63-.17,1.61-4.45-.47-.22,2,4.29.46L193,51.68l-4.29-.46-.21,2,4.45.47Z"/><path class="cls-3" d="M201.42,57.37l-1.66-.42-1.52-3.44-1.48-.37L196,56l-1.46-.37L196.75,47l1.83.47,1.84.47a2.71,2.71,0,0,1,1.83,1.36,3,3,0,0,1,.23,2.2,3.3,3.3,0,0,1-.9,1.61,2.32,2.32,0,0,1-1.73.6l1.6,3.53Zm-3.6-8.45-.69,2.75,2.22.56a1.25,1.25,0,0,0,1.09-.16,1.52,1.52,0,0,0,.58-.89,1.5,1.5,0,0,0-.1-1.06,1.25,1.25,0,0,0-.88-.65Z"/><path class="cls-3" d="M202.87,58l3.07-8.33,1.4.51-3.06,8.33Zm6.37-9.9-1.54-.57-1.39,1.33,0,.07,1.15.42,1.77-1.2Z"/><path class="cls-3" d="M212.1,60.24l-3.72-1.86L207,59.57l-1.45-.73,7.16-6.34,1.47.73-.77,9.54L211.95,62Zm.52-5.71-3,2.72,2.65,1.32Z"/><path class="cls-3" d="M137.44,155.94l-3.94-4.22,6.31-6,3.94,4.22-1.15,1.09-3-3.17-1.45,1.37,2.85,3.06-1.11,1-2.85-3.06-1.43,1.35,3,3.17Z"/><path class="cls-3" d="M147,155.52a1.74,1.74,0,0,0-.12-1,2.25,2.25,0,0,0-.67-.93,1.89,1.89,0,0,0-1.12-.51,1,1,0,0,0-.84.38.76.76,0,0,0-.18.62,1.5,1.5,0,0,0,.25.63,6.38,6.38,0,0,0,.56.69,9.56,9.56,0,0,1,.62.74,4.35,4.35,0,0,1,.45.77,2.4,2.4,0,0,1,.23.82,2.15,2.15,0,0,1-.13.86,3,3,0,0,1-.54.93,2.55,2.55,0,0,1-2.84.88,4.36,4.36,0,0,1-1.41-.81,3.21,3.21,0,0,1-1.24-3.79l1.38.23a1.89,1.89,0,0,0,0,1.32,2.6,2.6,0,0,0,.81,1.12,2.32,2.32,0,0,0,1.18.56,1.08,1.08,0,0,0,1-.43q.68-.82-.56-2.12a7.45,7.45,0,0,1-.74-.91,3.94,3.94,0,0,1-.45-.93,1.82,1.82,0,0,1,0-1,2.74,2.74,0,0,1,.57-1.07,2.26,2.26,0,0,1,1.27-.82,2.49,2.49,0,0,1,1.39.06,4.23,4.23,0,0,1,1.25.7,3,3,0,0,1,1.24,3.26Z"/><path class="cls-3" d="M151.12,157.66l-2.06-1.32.8-1.25,5.35,3.42-.8,1.25-2.06-1.32-3.87,6.06-1.23-.78Z"/><path class="cls-3" d="M152.3,166.72l4-7.7,1.28.67-4,7.7Z"/><path class="cls-3" d="M160.66,161.12l-2.75,6.62,3.67,1.51-.58,1.4-5-2.07,3.33-8Z"/><path class="cls-3" d="M162.86,171.21l2.63-8.28,1.38.43-2.63,8.28Z"/><path class="cls-3" d="M172.73,166.92a1.71,1.71,0,0,0-.56-.81,2.22,2.22,0,0,0-1-.51,1.9,1.9,0,0,0-1.23.07,1,1,0,0,0-.58.73.75.75,0,0,0,.12.63,1.47,1.47,0,0,0,.51.44,6.37,6.37,0,0,0,.82.35,9.46,9.46,0,0,1,.89.36,4.29,4.29,0,0,1,.76.47,2.36,2.36,0,0,1,.58.62,2.13,2.13,0,0,1,.28.82,3,3,0,0,1-.05,1.07,2.59,2.59,0,0,1-2.13,2.1,4.38,4.38,0,0,1-1.63-.05,3.16,3.16,0,0,1-2.84-2.77L168,170a1.86,1.86,0,0,0,.6,1.18,2.57,2.57,0,0,0,1.24.61,2.34,2.34,0,0,0,1.31-.06,1.09,1.09,0,0,0,.7-.85q.23-1-1.48-1.61a7.37,7.37,0,0,1-1.08-.46,3.88,3.88,0,0,1-.83-.61,1.8,1.8,0,0,1-.52-.91,2.73,2.73,0,0,1,0-1.21,2.29,2.29,0,0,1,.76-1.31,2.53,2.53,0,0,1,1.27-.59,4.25,4.25,0,0,1,1.44,0,2.94,2.94,0,0,1,2.6,2.3Z"/><path class="cls-3" d="M177.37,166.9l-2.44-.2.14-1.48,6.33.52-.14,1.48-2.44-.2-.68,7.16-1.45-.12Z"/><path class="cls-3" d="M187.3,172.59l-4,.16-.62,1.66-1.58.06,3.24-8.82,1.59-.06,3.68,8.55-1.59.06Zm-2.15-5.14-1.34,3.75,2.86-.11Z"/><path class="cls-3" d="M199.21,163.39l1.07,4.86a4.18,4.18,0,0,1-.27,3,3.16,3.16,0,0,1-2.15,1.53,3.23,3.23,0,0,1-2.6-.42,3.92,3.92,0,0,1-1.57-2.59l-1.07-4.86,1.41-.33,1.07,4.86a2.59,2.59,0,0,0,.91,1.61,1.81,1.81,0,0,0,1.55.27,1.69,1.69,0,0,0,1.22-.93,2.82,2.82,0,0,0,.11-1.83l-1.07-4.86Z"/><path class="cls-3" d="M207.65,166.46,205.59,161l1.36-.53,3.06,8.13-1.1.43-5.86-3.92,2,5.41-1.36.53-3.06-8.13,1.1-.43Z"/><path class="cls-3" d="M212.46,167.33l-3.89-7.76,1.28-.66,3.89,7.76Z"/><path class="cls-3" d="M216.52,157.35a1.71,1.71,0,0,0-1-.19,2.23,2.23,0,0,0-1.09.35,1.9,1.9,0,0,0-.83.91,1,1,0,0,0,.1.92.75.75,0,0,0,.53.36,1.47,1.47,0,0,0,.68,0,6.28,6.28,0,0,0,.83-.32,9.56,9.56,0,0,1,.89-.36,4.29,4.29,0,0,1,.87-.19,2.35,2.35,0,0,1,.85,0,2.12,2.12,0,0,1,.77.39,3,3,0,0,1,.71.8,2.59,2.59,0,0,1-.06,3,4.37,4.37,0,0,1-1.21,1.1,3.16,3.16,0,0,1-4,0l.65-1.25a1.86,1.86,0,0,0,1.25.43,2.58,2.58,0,0,0,1.31-.43,2.34,2.34,0,0,0,.9-1,1.09,1.09,0,0,0-.09-1.1q-.56-.9-2.18-.12a7.39,7.39,0,0,1-1.09.43,3.87,3.87,0,0,1-1,.14,1.79,1.79,0,0,1-1-.29,2.73,2.73,0,0,1-.83-.88,2.3,2.3,0,0,1-.37-1.47,2.54,2.54,0,0,1,.5-1.31,4.23,4.23,0,0,1,1.06-1,2.93,2.93,0,0,1,3.47-.17Z"/><path class="cls-3" d="M227.49,157.11l-4.44,3.69-5.49-6.73,4.44-3.69,1,1.23-3.33,2.77,1.26,1.55,3.21-2.67,1,1.18-3.21,2.67,1.24,1.52,3.33-2.77Z"/><path class="cls-3" d="M226.27,145.93l1.09-1.17.05.05,1.27,4.81,5,1,0,0-1.11,1.19-3.72-.81,1,3.69-1.12,1.19,0,0L227.43,151l-4.84-1-.05-.05,1.09-1.17,3.67.82Z"/><polygon class="cls-3" points="283.82 148.14 244.3 148.14 244.3 144.12 275.57 144.12 261.84 126.55 275.57 108.99 258.83 108.99 258.83 104.97 283.82 104.97 266.94 126.55 283.82 148.14"/><path class="cls-3" d="M183.79,183.2A73.38,73.38,0,0,1,115,135l-1-2.7H253.55l-1,2.7A73.37,73.37,0,0,1,183.79,183.2Zm-64-46.87a69.16,69.16,0,0,0,127.92,0Z"/><path class="cls-3" d="M183.79,160.52A50.6,50.6,0,0,1,139.89,135l-1.14-2h90.08l-1.14,2A50.61,50.61,0,0,1,183.79,160.52Zm-40.36-24.87a47.81,47.81,0,0,0,80.72,0Z"/><path class="cls-3" d="M230.6,91H137l.87-1.9a50.5,50.5,0,0,1,91.89,0Zm-89.4-2.68h85.18a47.81,47.81,0,0,0-85.18,0Z"/><polygon class="cls-4" points="247.75 137.35 259.31 138.29 247.75 139.24 247.75 137.35"/><polygon class="cls-3" points="123.46 148.14 83.47 148.14 100.34 126.55 83.47 104.97 108.45 104.97 108.45 108.99 91.72 108.99 105.45 126.55 91.72 144.12 123.46 144.12 123.46 148.14"/><path class="cls-3" d="M157.72,72.46c18.12-.24,36.25-.67,54.37-1,.8,0,.8-.27,0-.28-18.12-.29-36.25-.72-54.37-1C151.52,70.18,151.5,72.55,157.72,72.46Z"/><path class="cls-3" d="M164.43,66.63c13.69-.24,27.39-.67,41.08-1,.6,0,.6-.27,0-.28-13.69-.29-27.39-.72-41.08-1C159.74,64.35,159.73,66.72,164.43,66.63Z"/><path class="cls-3" d="M148.5,84.59c24.76-.24,49.54-.67,74.3-1,1.09,0,1.09-.27,0-.28-24.76-.29-49.54-.72-74.3-1C140,82.31,140,84.68,148.5,84.59Z"/><path class="cls-3" d="M155.18,148c20.43-.24,40.86-.67,61.29-1,.9,0,.9-.27,0-.28-20.42-.29-40.86-.72-61.29-1C148.19,145.76,148.18,148.13,155.18,148Z"/><path class="cls-3" d="M149.77,141.82c23.87-.24,47.76-.67,71.63-1,1,0,1.05-.27,0-.28-23.87-.29-47.76-.72-71.63-1C141.59,139.53,141.58,141.9,149.77,141.82Z"/><path class="cls-3" d="M249.9,139.39c3.1-.24,6.2-.67,9.31-1,.14,0,.14-.27,0-.28-3.1-.29-6.2-.72-9.31-1C248.84,137.11,248.84,139.48,249.9,139.39Z"/><path class="cls-3" d="M248.65,142.58c3.51-.24,7-.67,10.54-1a.14.14,0,0,0,0-.28c-3.51-.29-7-.72-10.54-1C247.45,140.29,247.45,142.66,248.65,142.58Z"/><path class="cls-3" d="M118.43,140.38c-3.4.24-6.8.67-10.2,1a.15.15,0,0,0,0,.28c3.4.29,6.8.72,10.2,1C119.59,142.66,119.59,140.29,118.43,140.38Z"/><path class="cls-3" d="M118.77,137.19c-3.51.24-7,.67-10.54,1a.14.14,0,0,0,0,.28c3.51.29,7,.72,10.54,1C120,139.48,120,137.11,118.77,137.19Z"/><path class="cls-3" d="M152.17,78.7c22.46-.24,44.93-.67,67.38-1,1,0,1-.27,0-.28-22.46-.29-44.93-.72-67.38-1C144.48,76.42,144.46,78.79,152.17,78.7Z"/><path class="cls-3" d="M163.11,154.45c15-.24,30-.67,45-1,.66,0,.66-.27,0-.28-15-.29-30-.72-45-1C158,152.17,158,154.54,163.11,154.45Z"/><rect class="cls-3" x="106.11" y="87.68" width="154.77" height="48.68"/><rect class="cls-2" x="110.13" y="91.71" width="146.73" height="40.64"/><path class="cls-3" d="M117.26,97.59h5.58a6.1,6.1,0,0,1,4.91,2,8.31,8.31,0,0,1,1.7,5.56v13.67q0,4.11-1.79,6.05a6.64,6.64,0,0,1-5.15,1.95h-5.24ZM121,122.87h1.74A2.64,2.64,0,0,0,125,122a4.63,4.63,0,0,0,.66-2.77V105.14a4.8,4.8,0,0,0-.63-2.67,2.55,2.55,0,0,0-2.29-.94H121Z"/><path class="cls-3" d="M132.77,97.59h3.77v29.22h-3.77Z"/><path class="cls-3" d="M139.86,97.59h11.23v3.94h-7.46v8.58h6.5V114h-6.5v8.58h7.46v4.19H139.86Z"/><path class="cls-3" d="M153,104.48a8.19,8.19,0,0,1,.55-3.12A6.52,6.52,0,0,1,155,99.13a6.19,6.19,0,0,1,2-1.33,5.94,5.94,0,0,1,4.54,0,6.21,6.21,0,0,1,2,1.33,6.53,6.53,0,0,1,1.46,2.24,8.19,8.19,0,0,1,.55,3.12V106h-3.77v-1.48a3,3,0,0,0-.76-2.24,2.59,2.59,0,0,0-3.58,0,3,3,0,0,0-.76,2.24v15.43a3,3,0,0,0,.76,2.24,2.59,2.59,0,0,0,3.58,0,3,3,0,0,0,.76-2.24v-5.5h-3v-3.69h6.76v9.19a8.15,8.15,0,0,1-.55,3.14,6.56,6.56,0,0,1-1.46,2.22,6.18,6.18,0,0,1-2,1.33,5.94,5.94,0,0,1-4.54,0,6.16,6.16,0,0,1-2-1.33,6.55,6.55,0,0,1-1.46-2.22,8.15,8.15,0,0,1-.55-3.14Z"/><path class="cls-3" d="M168.37,104.48a8.19,8.19,0,0,1,.55-3.12,6.52,6.52,0,0,1,1.46-2.24,6.19,6.19,0,0,1,2-1.33,5.94,5.94,0,0,1,4.54,0,6.2,6.2,0,0,1,2,1.33,6.53,6.53,0,0,1,1.46,2.24,8.19,8.19,0,0,1,.55,3.12v15.43a8.15,8.15,0,0,1-.55,3.14,6.56,6.56,0,0,1-1.46,2.22,6.17,6.17,0,0,1-2,1.33,5.94,5.94,0,0,1-4.54,0,6.16,6.16,0,0,1-2-1.33,6.55,6.55,0,0,1-1.46-2.22,8.15,8.15,0,0,1-.55-3.14Zm3.77,15.43a3,3,0,0,0,.76,2.24,2.59,2.59,0,0,0,3.58,0,3,3,0,0,0,.76-2.24V104.48a3,3,0,0,0-.76-2.24,2.59,2.59,0,0,0-3.58,0,3,3,0,0,0-.76,2.24Z"/><path class="cls-3" d="M187.43,97.59H193a6.1,6.1,0,0,1,4.91,2,8.31,8.31,0,0,1,1.7,5.56v13.67q0,4.11-1.79,6.05a6.64,6.64,0,0,1-5.15,1.95h-5.24Zm3.77,25.28h1.74a2.64,2.64,0,0,0,2.25-.88,4.63,4.63,0,0,0,.66-2.77V105.14a4.8,4.8,0,0,0-.63-2.67,2.55,2.55,0,0,0-2.29-.94h-1.74Z"/><path class="cls-3" d="M206.55,97.59h3.14l5.87,29.22H211.8l-1.11-6.28h-5.13l-1.11,6.28h-3.77Zm1.59,8.41h-.07l-1.85,10.59H210Z"/><path class="cls-3" d="M217.08,97.59h5.65a7.63,7.63,0,0,1,2.73.45,5.26,5.26,0,0,1,2.14,1.6,6.5,6.5,0,0,1,1.33,2.69,18.66,18.66,0,0,1,.37,4.17,23.07,23.07,0,0,1-.2,3.3,7.45,7.45,0,0,1-.87,2.57,5.82,5.82,0,0,1-2.07,2.24,6.38,6.38,0,0,1-3.4.8h-1.92v11.41h-3.77Zm3.77,13.87h1.81a3.52,3.52,0,0,0,1.77-.37,2.24,2.24,0,0,0,.92-1,4.27,4.27,0,0,0,.35-1.54q.06-.9.06-2t-.06-1.95a5,5,0,0,0-.33-1.6,2.28,2.28,0,0,0-.87-1.07,3.08,3.08,0,0,0-1.7-.39h-2Z"/><path class="cls-3" d="M231.55,97.59h3.77v4.19l-3.77,3Z"/><path class="cls-3" d="M249.61,106h-3.77v-.94a4.85,4.85,0,0,0-.61-2.48,2.18,2.18,0,0,0-2-1,2.28,2.28,0,0,0-1.27.33,2.31,2.31,0,0,0-.78.84,3.78,3.78,0,0,0-.39,1.19,8.78,8.78,0,0,0-.11,1.42q0,.86.06,1.46a2.8,2.8,0,0,0,.28,1,2.26,2.26,0,0,0,.65.76,5.67,5.67,0,0,0,1.16.66l2.88,1.27a7,7,0,0,1,2,1.25,5,5,0,0,1,1.2,1.68,7.75,7.75,0,0,1,.57,2.22,24.74,24.74,0,0,1,.15,2.85,16.66,16.66,0,0,1-.33,3.43,7.65,7.65,0,0,1-1.09,2.71,5.37,5.37,0,0,1-2,1.79,6.56,6.56,0,0,1-3.07.66,6.18,6.18,0,0,1-4.58-2,6.94,6.94,0,0,1-1.35-2.2,7.47,7.47,0,0,1-.5-2.75v-1.56h3.77v1.31a3.68,3.68,0,0,0,.61,2.07,2.27,2.27,0,0,0,2,.92,3,3,0,0,0,1.5-.31,2,2,0,0,0,.81-.86,3.85,3.85,0,0,0,.35-1.37q.07-.82.07-1.81,0-1.15-.07-1.89a3.26,3.26,0,0,0-.31-1.19,2,2,0,0,0-.66-.74,8.59,8.59,0,0,0-1.13-.62l-2.7-1.23a6.16,6.16,0,0,1-3.27-2.93,11.06,11.06,0,0,1-.83-4.58,11.71,11.71,0,0,1,.41-3.12,7.57,7.57,0,0,1,1.2-2.55,5.84,5.84,0,0,1,2-1.7,6.06,6.06,0,0,1,2.84-.64,5.72,5.72,0,0,1,2.57.57,6.41,6.41,0,0,1,2,1.52,6.85,6.85,0,0,1,1.27,2.11,6.72,6.72,0,0,1,.44,2.4Z"/><path class="cls-3" d="M72.87,46.17a3.05,3.05,0,0,0,2.1-1.1l1.61-1.93a3.12,3.12,0,0,0,.7-2.27,3.11,3.11,0,0,0-5.47-1.68l-1.61,1.93a3.09,3.09,0,0,0,2.68,5Zm4.87-7.33a4.27,4.27,0,0,0,2.15-3.62.58.58,0,0,1,1.16.09,5.44,5.44,0,0,1-2.82,4.59,3.77,3.77,0,0,1,.18.88,4.16,4.16,0,0,1-1,3.1Q68.24,55,59,66.1a.58.58,0,0,1-.82.08.58.58,0,0,1-.08-.81l15-18.06-.13,0a4.25,4.25,0,0,1-3.69-6.93l1.61-1.93a4.27,4.27,0,0,1,6.84.38Zm1.53,17.69a3.12,3.12,0,0,0,2.35.27L84,56.11a3.09,3.09,0,0,0,.66-5.67c-1.23-.68-2.2-.32-3.39,0s-2.49.51-3.24,1.86a3.08,3.08,0,0,0,1.2,4.2ZM77,51.76l.07-.11L73.07,52.8a.57.57,0,0,1-.71-.39.58.58,0,0,1,.4-.72L82,49.05a4.25,4.25,0,1,1,2.34,8.17l-2.42.69A4.26,4.26,0,0,1,77,51.76Zm-13,2.39a.58.58,0,1,1,.31,1.11L52.72,58.52a.58.58,0,0,1-.31-1.12Z"/><path class="cls-3" d="M298.55,58.78a.57.57,0,1,1,.73.88c-4.19,3.42-6.77,5.06-8.92,5.54S286.42,65,284,63.8a6.48,6.48,0,0,1-3.7-3.7c-1.2-2.5-1.88-4.23-1.34-6.47s2.23-4.7,5.8-8.87a.57.57,0,0,1,.86.75c-3.45,4-5.08,6.42-5.56,8.39s.17,3.43,1.26,5.71a5.38,5.38,0,0,0,3.18,3.18c2.19,1.1,3.7,1.73,5.58,1.3s4.41-2,8.45-5.31Zm-10.64-16c5.2.39,11.56,4.3,15.77,7.16a.56.56,0,0,1,.12.83,10.34,10.34,0,0,0-2.27,5.49c3.71-2.88,4.8-6.26,4.26-9.27a10.7,10.7,0,0,0-8.31-8.17c-3.22-.64-6.78.34-9.57,4Zm-1.06,1.11a.62.62,0,0,1-.35-.1.58.58,0,0,1-.16-.79c3.17-4.76,7.47-6.07,11.35-5.29a11.84,11.84,0,0,1,9.21,9.09c.66,3.67-.77,7.78-5.68,11.09a.6.6,0,0,1-.42.13.57.57,0,0,1-.52-.6,15.64,15.64,0,0,1,.52-3.37,12.08,12.08,0,0,1,1.75-3.5c-4-2.68-10.76-6.79-15.7-6.66Zm-3.66,6.95a.57.57,0,0,1,1,.56c-.85,1.52-1.89,3.21-1.28,5,.24.7.42,1,.58,1,.33,0,.86-.59,1.65-1.61a.57.57,0,0,1,.89,0c.76.85,1.45,1.56,2.28,2.34a.56.56,0,0,1-.07.89c-1,.76-1.58,1.27-1.64,1.6,0,.16.3.34,1,.59,1.72.63,3.72-.56,5.21-1.35a.57.57,0,1,1,.53,1c-1.86,1-4,2.19-6.13,1.41-1.3-.48-1.87-1-1.72-1.87.1-.56.62-1.16,1.56-1.91-.51-.48-1-.94-1.43-1.47a3.79,3.79,0,0,1-1.95,1.51c-.83.13-1.38-.46-1.82-1.76-.75-2.17.3-4,1.36-5.9Z"/><path class="cls-3" d="M336.89,114.43,333,107.66l-.65.38-2,6.43a.6.6,0,0,1-.28.39l-3.31,1.92a.58.58,0,1,1-.58-1l3.11-1.81,1.56-5.06-1.61.94a.58.58,0,1,1-.58-1l8-4.67a.58.58,0,1,1,.58,1L334,107.07l3.93,6.77,6-3.49a.58.58,0,1,1,.58,1l-13,7.57a.58.58,0,1,1-.58-1Zm0-11.93-9.66,5.61c-1.8,1-3.24.48-4.55-1l-3.34-3.66-6.54-7.2a3.33,3.33,0,0,1,0-4.84c1.48-1.4,3.26-1.11,4.64.3a54.8,54.8,0,0,1,4.75,5.68c1.33,1.81,2.57,3.67,3.78,5.54a37.5,37.5,0,0,1,3.81-3.37l-.47-2.07-2.46,2.24a.58.58,0,1,1-.78-.85l6.09-5.55a.58.58,0,1,1,.78.87l-2.64,2.4.5,2.21c.91-.67,1.86-1.31,2.82-1.93,1.69-1.08,4.3-1.21,5.49.62,1.3,2-.56,4-2.26,5Zm-10.25,4.61,9.66-5.61c1-.6,2.74-2,1.86-3.32s-2.76-1-3.89-.29a41.74,41.74,0,0,0-7.9,6.38.59.59,0,0,1-1,0c-1.32-2.06-2.67-4.1-4.14-6.1a53.42,53.42,0,0,0-4.69-5.61,1.93,1.93,0,0,0-3-.22,2.19,2.19,0,0,0,0,3.21l6.55,7.2,3.34,3.66c.93,1,1.8,1.49,3.1.74Z"/><path class="cls-3" d="M340.84,41.23a.61.61,0,0,1-.64,1l-5.55-3.45a.63.63,0,0,1-.2-.85.61.61,0,0,1,.84-.2ZM352,27.62c2-3.12-.58-5-2.89-6.69-.51-.38-1-.77-1.51-1.16a.61.61,0,1,1,.78-.95c.46.38,1,.76,1.46,1.13,3,2.25,5.72,4.4,3.19,8.33L332.53,60.14a.61.61,0,0,1-.85.18.62.62,0,0,1-.18-.85Zm-.87-2.18a.61.61,0,1,1-.69,1l-5-3.43a.62.62,0,1,1,.7-1Zm-2,3.24a.61.61,0,0,1,.16.86.62.62,0,0,1-.85.16l-5.13-3.53a.61.61,0,1,1,.69-1Zm-2,3.21a.61.61,0,1,1-.69,1l-5.22-3.6a.61.61,0,0,1-.16-.86.62.62,0,0,1,.85-.16ZM345,35.08a.62.62,0,0,1,.16.85.6.6,0,0,1-.85.16L339,32.45a.62.62,0,0,1-.16-.86.6.6,0,0,1,.85-.16Zm-2.08,3.19a.61.61,0,0,1,.16.86.62.62,0,0,1-.85.16l-5.38-3.7a.61.61,0,1,1,.69-1Z"/><path class="cls-3" d="M40.76,110.12a.6.6,0,0,1,.65-.53.57.57,0,0,1,.53.63c-.44,4.65-3.28,7-7.83,7.28a.59.59,0,0,1-.64-.54.58.58,0,0,1,.14-.42,5.26,5.26,0,0,0,1.12-2.38,6,6,0,0,0,0-2.12,3.63,3.63,0,0,1-1.94.6.58.58,0,0,1-.59-.58.6.6,0,0,1,0-.22,5.46,5.46,0,0,0,.12-3.35,5.79,5.79,0,0,0-1.83-2.55,17.66,17.66,0,0,1-6.12-10,12.14,12.14,0,0,1,2.39-10.17,8,8,0,0,1,4.39-2.66c2.43-2,4.78-2.32,7.05-1.5a14.76,14.76,0,0,1,5.92,4.72c1.29,1.54,2.61,3.61,4.66,4,.53.1.56.69.32,1.06a1.77,1.77,0,0,1-.54.5l-.2.13A11.42,11.42,0,0,0,53,94.36a.58.58,0,0,1,.37.85,1.27,1.27,0,0,1-.62.5,4.85,4.85,0,0,0,4,0c.48-.21.87.19.82.69A5.34,5.34,0,0,1,56,99.84a4.68,4.68,0,0,1-3.6,1.11.59.59,0,1,1,.09-1.17A3.56,3.56,0,0,0,55.21,99a3.79,3.79,0,0,0,1.08-1.84,6.69,6.69,0,0,1-5.29-1A.59.59,0,0,1,51.13,95l.09,0a11.38,11.38,0,0,1-4.31-2.73.59.59,0,0,1,.18-1l.38-.18c-1.82-.79-3-2.51-4.18-4a13.86,13.86,0,0,0-5.5-4.45c-1.9-.68-3.89-.37-6,1.37a.63.63,0,0,1-.29.15,6.84,6.84,0,0,0-3.87,2.31,11,11,0,0,0-2.12,9.18,16.57,16.57,0,0,0,5.74,9.35,6.93,6.93,0,0,1,2.18,3.07,6.19,6.19,0,0,1,.12,3.19l.2-.09a3.89,3.89,0,0,0,.88-.61.61.61,0,0,1,.27-.16.58.58,0,0,1,.73.4,7.76,7.76,0,0,1,.25,3.51,6.13,6.13,0,0,1-.62,1.81c3.41-.6,5.17-2.61,5.5-6.06ZM44.62,95a23.56,23.56,0,0,0-3.27-5.07,9.37,9.37,0,0,1-4.53-1.15c-.52-.24-1-.48-1.61-.67a21.15,21.15,0,0,1-1.88,4.55c-1.55,3.06-3,5.95-.17,8.91a14.77,14.77,0,0,0,4.07,3.07c2.33,1.15,6.05,2,8-.3,2.1-2.46.55-6.88-.59-9.33Zm1.06-.5c1.39,3,2.88,7.71.42,10.6-2.33,2.72-6.55,2-9.41.59a16,16,0,0,1-4.4-3.31c-3.43-3.56-1.78-6.81,0-10.25a17.57,17.57,0,0,0,1.9-4.86.59.59,0,0,1,.74-.48,15.84,15.84,0,0,1,2.39.92,8.34,8.34,0,0,0,4.26,1,.6.6,0,0,1,.5.2,24.86,24.86,0,0,1,3.62,5.55Z"/><path class="cls-5" d="M354.76,175.05"/><rect class="cls-1" x="3.64" y="10.04" width="360" height="200"/><g class="cls-6"><path class="cls-3" d="M24.55,14.57a.53.53,0,0,1,0,.74.54.54,0,0,1-.75,0L19,10.07a.53.53,0,1,1,.78-.71ZM6.41,31.21a.53.53,0,0,1,0,.74.54.54,0,0,1-.75,0L1.35,27.29c-1.89-2-1.79-4.19.26-6.07L17.88,6.29c2.05-1.88,4.2-1.81,6.1.24l4.28,4.64a.52.52,0,0,1,0,.74.53.53,0,0,1-.75,0L23.2,7.25c-1.5-1.62-3-1.68-4.6-.18L2.33,22c-1.63,1.49-1.7,3-.2,4.59ZM9.8,28.09a.53.53,0,1,1-.78.71L4.21,23.6A.53.53,0,1,1,5,22.89Zm3.88-3.56a.52.52,0,0,1,0,.74.53.53,0,0,1-.75,0L8.09,20a.53.53,0,0,1,0-.74.52.52,0,0,1,.75,0Zm3.63-3.33a.53.53,0,1,1-.78.72l-4.82-5.21a.53.53,0,0,1,0-.74.54.54,0,0,1,.75,0Zm3.62-3.32a.53.53,0,1,1-.78.71l-4.81-5.21a.53.53,0,0,1,0-.74.52.52,0,0,1,.75,0Z"/><path class="cls-3" d="M220,15.08a.62.62,0,0,1-.21.86.63.63,0,0,1-.86-.21l-2.18-3.58a.63.63,0,0,1,1.08-.66Zm15.94,1.59a9.61,9.61,0,1,1,.3,13.61,9.63,9.63,0,0,1-.3-13.61Zm.91.87a8.36,8.36,0,1,0,11.84-.29,8.37,8.37,0,0,0-11.84.29Zm-1.39-6.89a.62.62,0,0,1,0,.89l-4.51,4.73a.62.62,0,0,1-.89,0l-3-2.83-1.87.4,2.55,9.65a.63.63,0,0,1-1.22.33L224,14.12l-2.21.46a.61.61,0,0,1-.71-.28l-1.94-3.22a.63.63,0,0,1,.19-.87c1.62-1,3.26-2,4.91-2.8a37,37,0,0,1,4.57-2A28.79,28.79,0,0,0,232.71,4a15.33,15.33,0,0,0,2.92-2,.63.63,0,0,1,1.05.44,15.58,15.58,0,0,1-.47,4A32.32,32.32,0,0,1,235,10.27ZM235,6.21a17,17,0,0,0,.4-2.41,16.5,16.5,0,0,1-2.11,1.3,18.73,18.73,0,0,1-3.58,1.38,34.7,34.7,0,0,0-4.89,2.07c-1.45.73-2.88,1.55-4.28,2.4l1.4,2.33,5.24-1.12a.66.66,0,0,1,.58.17l2.74,2.61,3.64-3.82-.24-.23a.62.62,0,0,1-.13-.72,32.8,32.8,0,0,0,1.24-4Zm-2.46,12.12a.63.63,0,1,1-.91-.87l4.89-5.12a.63.63,0,1,1,.91.87ZM247.81,36a.63.63,0,1,1-.91-.87l8.15-8.54a.63.63,0,1,1,.91.87Z"/><path class="cls-3" d="M123.55,31.14a5.77,5.77,0,0,1-1.36-1.39,4.44,4.44,0,0,1-.77-3,3.59,3.59,0,0,0-.87-3,.76.76,0,0,0-.82-.22c-.31.15-.56.6-.65,1.42a5.84,5.84,0,0,0,1.37,5,4.81,4.81,0,0,0,2.79,1.21l.31,0Zm-9.2-17.52a.55.55,0,0,1-1-.33,7.78,7.78,0,0,1,4-4.64,4.7,4.7,0,0,0-1.88-.3.54.54,0,0,1-.35-1,6.67,6.67,0,0,1,3.71-1.84,11.1,11.1,0,0,0-2.13-2.7.54.54,0,0,1,0-.77.52.52,0,0,1,.34-.16,7.79,7.79,0,0,1,3.35.24,7.28,7.28,0,0,1,.16-1.69A.53.53,0,0,1,121.1,0a.56.56,0,0,1,.32.19,19.44,19.44,0,0,0,6.35,4.12C131.53,6.1,135,7.72,135.4,13c3.58,6.83-2.29,10.38-6.56,13l-.47.29a.55.55,0,0,1-.57-.93l.47-.29c3.92-2.37,9.31-5.64,6.11-11.61a.57.57,0,0,1-.07-.22c-.34-4.7-3.53-6.2-7-7.85a22.92,22.92,0,0,1-5.91-3.59,2.73,2.73,0,0,0,.11,1,.64.64,0,0,1,0,.47.55.55,0,0,1-.7.34,8.79,8.79,0,0,0-2.62-.56,9.57,9.57,0,0,1,1.85,2.87.55.55,0,0,1-.47.78,5.49,5.49,0,0,0-2.76.81l.13,0a5.16,5.16,0,0,1,1.71.74c.46.28.28.77-.13,1-1.94,1.17-3.43,2.08-4.18,4.46Zm-5.63,2.52A6.25,6.25,0,0,0,111,18.43a3.42,3.42,0,0,0,2.37.3,4.67,4.67,0,0,1,4.05.75,1.83,1.83,0,0,1,.63,2A2.69,2.69,0,0,1,115.93,23a6.87,6.87,0,0,1-6.09-1,5.8,5.8,0,0,1-1.9-3.21,9.26,9.26,0,0,1-.24-2.35.54.54,0,0,1,.56-.54.56.56,0,0,1,.45.26Zm1.78,3.25a5.83,5.83,0,0,1-1.55-1.19l.07.31a4.78,4.78,0,0,0,1.53,2.62,5.84,5.84,0,0,0,5.14.75c.81-.19,1.22-.5,1.34-.81a.77.77,0,0,0-.32-.79,3.58,3.58,0,0,0-3.1-.5,4.48,4.48,0,0,1-3.1-.4Zm12.58,9.73a6.26,6.26,0,0,0,2.52,2,.55.55,0,0,1,.33.43.54.54,0,0,1-.46.62,9.46,9.46,0,0,1-2.35.05,5.82,5.82,0,0,1-3.42-1.5,6.87,6.87,0,0,1-1.7-5.92,2.68,2.68,0,0,1,1.25-2.28,1.82,1.82,0,0,1,2,.39,4.65,4.65,0,0,1,1.23,3.93,3.44,3.44,0,0,0,.58,2.32Z"/></g></g></g></svg>