<?xml version="1.0" encoding="utf-8"?>
<!-- Generator: Adobe Illustrator 21.0.2, SVG Export Plug-In . SVG Version: 6.00 Build 0)  -->
<svg version="1.1" id="Capa_1" xmlns="http://www.w3.org/2000/svg" xmlns:xlink="http://www.w3.org/1999/xlink" x="0px" y="0px"
	 viewBox="0 0 360.2 263" style="enable-background:new 0 0 360.2 263;" xml:space="preserve">
<style type="text/css">
	.st0{fill:#211918;}
	.st1{fill:#D5B051;}
</style>
<g>
	<g>
		<path class="st0" d="M297.7,175.9c-0.1,0.4-0.3,0.7-0.5,1.1c-0.2,0.5-0.4,0.9-0.6,1.4l0.5-1.4l0.4-1.1H297.7z"/>
		<path class="st0" d="M300.4,92.7H64.7c12.5-36.4,41.1-65,77.4-77.4C207.2-7.1,278.1,27.6,300.4,92.7z"/>
		<path class="st0" d="M326.1,161.9l26.2,36h-62.1l6.4-19.5c0.2-0.5,0.4-0.9,0.6-1.4c0.2-0.4,0.3-0.7,0.5-1.1h-0.2l-0.4,1.1
			l-0.5,1.4c-13.1,30.1-37.5,54-67.9,66.5c-64.4,26.5-138-3.9-165-67.9h-0.1l8.9,20.9l-65.6-1.6l30-33.6l-30-38.1h34.6l7,16.5V97.7
			h264.3v32l1.7-5.1h38L326.1,161.9z"/>
		<path class="st0" d="M297.7,175.9c-0.1,0.4-0.3,0.7-0.5,1.1c-0.2,0.5-0.4,0.9-0.6,1.4l0.5-1.4l0.4-1.1H297.7z"/>
		<path class="st0" d="M297.7,175.9c-0.1,0.4-0.3,0.7-0.5,1.1h-0.1l0.4-1.1H297.7z"/>
	</g>
	<g>
		<g>
			<g>
				<g>
					<path class="st1" d="M180.3,221.1c-32.1,0-62-17.4-77.9-45.3l-2-3.6l159.8,0l-2,3.6C242.3,203.7,212.5,221.1,180.3,221.1z
						 M108.7,177c15.5,24.4,42.6,39.4,71.6,39.4c29.1,0,56.1-15,71.6-39.4L108.7,177z"/>
				</g>
				<g>
					<path class="st1" d="M263.4,97.7l-166.1,0l1.5-3.4c14.5-31.8,46.5-52.4,81.5-52.4c35,0,67,20.6,81.5,52.4L263.4,97.7z
						 M104.8,93l151.1,0c-14.4-28.2-43.7-46.3-75.6-46.3C148.5,46.7,119.2,64.7,104.8,93z"/>
				</g>
				<g>
					<path class="st1" d="M134.1,64.8c32.1-0.4,64.3-1.2,96.5-1.7c1.4,0,1.4-0.5,0-0.5c-32.1-0.5-64.3-1.3-96.5-1.7
						C123.1,60.8,123.1,65,134.1,64.8z"/>
				</g>
				<g>
					<path class="st1" d="M146,54.5c24.3-0.4,48.6-1.2,72.9-1.7c1.1,0,1.1-0.5,0-0.5c-24.3-0.5-48.6-1.3-72.9-1.7
						C137.7,50.4,137.7,54.6,146,54.5z"/>
				</g>
				<g>
					<path class="st1" d="M117.7,86.4c43.9-0.4,87.9-1.2,131.8-1.7c1.9,0,1.9-0.5,0-0.5c-43.9-0.5-87.9-1.3-131.8-1.7
						C102.7,82.3,102.7,86.5,117.7,86.4z"/>
				</g>
				<g>
					<path class="st1" d="M129.6,198.9c36.2-0.4,72.5-1.2,108.7-1.7c1.6,0,1.6-0.5,0-0.5c-36.2-0.5-72.5-1.3-108.7-1.7
						C117.2,194.9,117.2,199.1,129.6,198.9z"/>
				</g>
				<g>
					<path class="st1" d="M120,187.9c42.4-0.4,84.7-1.2,127.1-1.7c1.9,0,1.9-0.5,0-0.5c-42.4-0.5-84.7-1.3-127.1-1.7
						C105.5,183.8,105.5,188,120,187.9z"/>
				</g>
				<g>
					<path class="st1" d="M124.3,75.9c39.8-0.4,79.7-1.2,119.6-1.7c1.8,0,1.8-0.5,0-0.5c-39.8-0.5-79.7-1.3-119.6-1.7
						C110.6,71.9,110.6,76.1,124.3,75.9z"/>
				</g>
				<g>
					<path class="st1" d="M143.7,210.3c26.6-0.4,53.2-1.2,79.8-1.7c1.2,0,1.2-0.5,0-0.5c-26.6-0.5-53.2-1.3-79.8-1.7
						C134.6,206.3,134.5,210.5,143.7,210.3z"/>
				</g>
				<path class="st1" d="M327.9,160.8l30-38.3l-40.7,0l0-30.7l-13.1,0c-2.5-7.9-5.9-15.6-9.9-22.9C271.3,27.5,227.7,1.7,180.4,1.7
					c-46.6,0-89.8,25.2-112.9,65.7c-4.4,7.8-8,16-10.7,24.5l-14.2,0l0,30.7l-40.2,0l29.9,38.3L2.3,199.1l67.2,0
					c23.3,38,65.1,62.2,110.8,62.2c45.7,0,87.6-24.2,110.8-62.2l66.7,0L327.9,160.8z M73.7,70.9C95.5,32.6,136.4,8.8,180.4,8.8
					c44.7,0,85.9,24.4,107.5,63.6c3.4,6.2,6.3,12.7,8.6,19.4l-232.2,0C66.7,84.6,69.9,77.6,73.7,70.9z M49.7,99L310,99l0,72.1
					l-5.9,0l0-0.1l-247.6,0l0,0.1l-6.9,0L49.7,99z M17,192l24.4-31.2L17,129.6l25.5,0l0,48.6l16.7,0c0.2,0.6,0.5,1.3,0.7,1.9
					c-4.6,0.4-9.1,0.9-13.7,1.3c-0.3,0-0.3,0.5,0,0.5c5,0.4,10,1,15,1.4c0.3,0.7,0.6,1.5,1,2.2c-5.3,0.4-10.7,1.1-16,1.5
					c-0.3,0-0.3,0.5,0,0.5c5.9,0.5,11.8,1.2,17.8,1.7c0.5,0.9,0.9,1.8,1.4,2.8L17,192z M180.3,254.2c-49.7,0-94.6-30.3-113.4-76
					l226.9,0C275,223.9,230,254.2,180.3,254.2z M296.7,189.2c5.8-0.4,11.6-1.1,17.5-1.6c0.3,0,0.3-0.5,0-0.5
					c-5.3-0.4-10.5-1-15.8-1.5c0.3-0.7,0.6-1.4,0.9-2.1c4.9-0.4,9.9-1.1,14.8-1.5c0.2,0,0.2-0.5,0-0.5c-4.5-0.4-8.9-1-13.4-1.4
					c0.2-0.6,0.4-1.2,0.7-1.7l15.7,0l0-48.6l26.1,0l-24.4,31.2l24.4,31.2l-48,0C295.7,191.1,296.2,190.1,296.7,189.2z"/>
				<g>
					<path class="st1" d="M63.3,109.4l9.9,0c3.8,0,6.7,1.2,8.7,3.5c2,2.4,3,5.6,3,9.9l0,24.3c0,4.9-1.1,8.4-3.2,10.7
						c-2.1,2.3-5.2,3.5-9.1,3.5l-9.3,0L63.3,109.4z M70,154.3l3.1,0c1.9,0,3.2-0.5,4-1.6c0.8-1,1.2-2.7,1.2-4.9l0-25
						c0-2-0.4-3.6-1.1-4.7c-0.7-1.1-2.1-1.7-4.1-1.7l-3.1,0L70,154.3z"/>
					<path class="st1" d="M90.8,109.4l6.7,0l0,51.9l-6.7,0L90.8,109.4z"/>
					<path class="st1" d="M103.4,109.4l19.9,0l0,7l-13.2,0l0,15.2l11.5,0l0,7l-11.5,0l0,15.2l13.2,0l0,7.4l-19.9,0L103.4,109.4z"/>
					<path class="st1" d="M126.6,121.7c0-2.1,0.3-3.9,1-5.5c0.7-1.6,1.5-2.9,2.6-4c1.1-1,2.3-1.8,3.6-2.4c1.3-0.5,2.7-0.8,4-0.8
						c1.4,0,2.7,0.3,4,0.8c1.3,0.5,2.5,1.3,3.6,2.4c1.1,1,1.9,2.4,2.6,4c0.7,1.6,1,3.4,1,5.5l0,2.6l-6.7,0l0-2.6
						c0-1.8-0.4-3.1-1.3-4c-0.9-0.9-2-1.3-3.2-1.3c-1.2,0-2.3,0.4-3.2,1.3c-0.9,0.8-1.3,2.2-1.3,4l0,27.4c0,1.8,0.4,3.1,1.3,4
						c0.9,0.9,2,1.3,3.2,1.3c1.2,0,2.3-0.4,3.2-1.3c0.9-0.8,1.3-2.2,1.3-4l0-9.8l-5.3,0l0-6.6l12,0l0,16.3c0,2.1-0.3,4-1,5.6
						c-0.7,1.6-1.5,2.9-2.6,3.9c-1.1,1-2.3,1.8-3.6,2.4c-1.3,0.5-2.7,0.8-4,0.8c-1.4,0-2.7-0.3-4-0.8c-1.3-0.5-2.5-1.3-3.6-2.4
						c-1.1-1-1.9-2.4-2.6-3.9c-0.7-1.6-1-3.4-1-5.6L126.6,121.7z"/>
					<path class="st1" d="M154,121.7c0-2.1,0.3-3.9,1-5.5c0.7-1.6,1.5-2.9,2.6-4c1.1-1,2.3-1.8,3.6-2.4c1.3-0.5,2.7-0.8,4-0.8
						c1.4,0,2.7,0.3,4,0.8c1.3,0.5,2.5,1.3,3.6,2.4c1.1,1,1.9,2.4,2.6,4c0.7,1.6,1,3.4,1,5.5l0,27.4c0,2.1-0.3,4-1,5.6
						c-0.7,1.6-1.5,2.9-2.6,3.9c-1.1,1-2.3,1.8-3.6,2.4c-1.3,0.5-2.7,0.8-4,0.8c-1.4,0-2.7-0.3-4-0.8c-1.3-0.5-2.5-1.3-3.6-2.4
						c-1.1-1-1.9-2.4-2.6-3.9c-0.7-1.6-1-3.4-1-5.6L154,121.7z M160.7,149.1c0,1.8,0.4,3.1,1.3,4c0.9,0.9,2,1.3,3.2,1.3
						c1.2,0,2.3-0.4,3.2-1.3s1.3-2.2,1.3-4l0-27.4c0-1.8-0.4-3.1-1.3-4c-0.9-0.9-2-1.3-3.2-1.3c-1.2,0-2.3,0.4-3.2,1.3
						c-0.9,0.8-1.3,2.2-1.3,4L160.7,149.1z"/>
					<path class="st1" d="M187.8,109.4l9.9,0c3.8,0,6.7,1.2,8.7,3.5c2,2.4,3,5.6,3,9.9l0,24.3c0,4.9-1.1,8.4-3.2,10.7
						c-2.1,2.3-5.2,3.5-9.1,3.5l-9.3,0L187.8,109.4z M194.5,154.3l3.1,0c1.9,0,3.2-0.5,4-1.6c0.8-1,1.2-2.7,1.2-4.9l0-25
						c0-2-0.4-3.6-1.1-4.7c-0.7-1.1-2.1-1.7-4.1-1.7l-3.1,0L194.5,154.3z"/>
					<path class="st1" d="M221.7,109.4l5.6,0l10.4,51.9l-6.7,0l-2-11.1l-9.1,0l-2,11.1l-6.7,0L221.7,109.4z M224.5,124.4l-0.1,0
						l-3.3,18.8l6.7,0L224.5,124.4z"/>
					<path class="st1" d="M240.4,109.4l10,0c1.8,0,3.4,0.3,4.8,0.8c1.4,0.5,2.7,1.5,3.8,2.8c1.1,1.4,1.9,3,2.4,4.8
						c0.4,1.8,0.7,4.3,0.7,7.4c0,2.3-0.1,4.2-0.4,5.9c-0.2,1.6-0.8,3.1-1.5,4.6c-0.9,1.7-2.1,3-3.7,4c-1.5,0.9-3.5,1.4-6,1.4l-3.4,0
						l0,20.2l-6.7,0L240.4,109.4z M247.1,134.1l3.2,0c1.4,0,2.4-0.2,3.1-0.7c0.7-0.4,1.3-1,1.6-1.8c0.4-0.8,0.6-1.7,0.6-2.7
						c0.1-1.1,0.1-2.3,0.1-3.6c0-1.2,0-2.4-0.1-3.5c-0.1-1.1-0.3-2-0.6-2.8c-0.3-0.8-0.8-1.4-1.5-1.9c-0.7-0.5-1.7-0.7-3-0.7l-3.5,0
						L247.1,134.1z"/>
					<path class="st1" d="M265.2,109.4l6.7,0l0,7.4l-6.7,5.4L265.2,109.4z"/>
					<path class="st1" d="M295.8,124.4l-6.7,0l0-1.7c0-1.7-0.4-3.2-1.1-4.4c-0.7-1.2-1.9-1.9-3.6-1.9c-0.9,0-1.7,0.2-2.3,0.6
						c-0.6,0.4-1,0.9-1.4,1.5c-0.3,0.6-0.6,1.3-0.7,2.1c-0.1,0.8-0.2,1.6-0.2,2.5c0,1,0,1.9,0.1,2.6c0.1,0.7,0.2,1.3,0.5,1.8
						c0.3,0.5,0.6,1,1.1,1.3c0.5,0.4,1.2,0.8,2.1,1.2l5.1,2.3c1.5,0.6,2.7,1.4,3.6,2.2c0.9,0.9,1.6,1.8,2.1,3c0.5,1.1,0.8,2.5,1,3.9
						c0.2,1.5,0.3,3.2,0.3,5.1c0,2.2-0.2,4.2-0.6,6.1c-0.4,1.9-1,3.5-1.9,4.8c-0.9,1.3-2.1,2.4-3.6,3.2c-1.5,0.8-3.3,1.2-5.4,1.2
						c-1.6,0-3.1-0.3-4.5-0.9c-1.4-0.6-2.6-1.5-3.6-2.6c-1-1.1-1.8-2.4-2.4-3.9c-0.6-1.5-0.9-3.1-0.9-4.9l0-2.8l6.7,0l0,2.3
						c0,1.4,0.4,2.6,1.1,3.7c0.7,1.1,1.9,1.6,3.6,1.6c1.1,0,2-0.2,2.7-0.5c0.6-0.4,1.1-0.9,1.4-1.5c0.3-0.7,0.5-1.5,0.6-2.4
						c0.1-1,0.1-2,0.1-3.2c0-1.4,0-2.5-0.1-3.3c-0.1-0.9-0.3-1.6-0.6-2.1c-0.3-0.5-0.7-1-1.2-1.3c-0.5-0.3-1.2-0.7-2-1.1l-4.8-2.2
						c-2.9-1.3-4.8-3-5.8-5.2c-1-2.2-1.5-4.9-1.5-8.1c0-1.9,0.2-3.8,0.7-5.5c0.5-1.8,1.2-3.3,2.1-4.5c0.9-1.3,2.1-2.3,3.6-3
						c1.4-0.8,3.1-1.1,5-1.1c1.7,0,3.2,0.3,4.6,1c1.4,0.7,2.6,1.6,3.5,2.7c1,1.1,1.7,2.4,2.3,3.8c0.5,1.4,0.8,2.8,0.8,4.3
						L295.8,124.4z"/>
				</g>
			</g>
		</g>
		<g>
			<path class="st1" d="M84.6,187l13.4-5.1l2.5,6.6c0.6,1.5,0.7,2.8,0.4,3.7c-0.3,1-1,1.7-2.2,2.1c-0.8,0.3-1.5,0.3-2.2,0
				c-0.7-0.3-1.3-0.8-1.9-1.7c0.3,1,0.3,1.9,0,2.7c-0.3,0.8-0.9,1.4-1.9,1.8c-1.3,0.5-2.4,0.4-3.4-0.3c-1-0.7-1.8-1.9-2.5-3.8
				L84.6,187z M91.5,188.1l-3.2,1.2l1,2.7c0.3,0.8,0.6,1.3,1,1.5c0.4,0.3,0.9,0.3,1.4,0.1c0.6-0.2,0.9-0.5,1.1-0.8
				c0.2-0.3,0.1-0.8-0.1-1.4L91.5,188.1z M96.8,186.1l-2.8,1.1l1.1,2.8c0.2,0.6,0.5,1,0.8,1.2c0.3,0.2,0.7,0.2,1.2,0
				c0.5-0.2,0.9-0.5,1-0.9c0.1-0.3,0-0.8-0.2-1.4L96.8,186.1z"/>
			<path class="st1" d="M90.6,201.6l14.7-4.2l2.2,3l-8.4,12.8l-2.3-3.1l1.4-1.9l-3.1-4.3l-2.3,0.7L90.6,201.6z M97.7,203l2.2,3
				l3.7-5L97.7,203z"/>
			<path class="st1" d="M101.6,215.6l9.5-10.8l5.4,4.7c1.3,1.1,2,2.3,2.2,3.5c0.1,1.2-0.3,2.3-1.4,3.5c-0.6,0.7-1.3,1.1-2.2,1.3
				c-0.9,0.2-1.7,0-2.6-0.3l-1.3,6.5l-3-2.6l1.3-5.7l-1.7-1.5l-3.4,3.9L101.6,215.6z M112,209.2l-2.6,2.9l2.5,2.2
				c0.5,0.4,1,0.6,1.4,0.6c0.4,0,0.9-0.3,1.3-0.8c0.4-0.5,0.6-1,0.6-1.4c0-0.4-0.3-0.9-0.8-1.3L112,209.2z"/>
			<path class="st1" d="M114,226l7.4-12.3l6,3.6c1.4,0.8,2.3,1.7,2.7,2.7c0.4,0.9,0.2,1.9-0.4,3c-0.4,0.7-1,1.2-1.7,1.4
				c-0.7,0.2-1.6,0.2-2.5-0.1c0.9,0.6,1.4,1.3,1.7,2.1c0.3,0.8,0.2,1.7-0.3,2.6c-0.7,1.2-1.6,1.8-2.8,1.9c-1.2,0.1-2.6-0.4-4.3-1.4
				L114,226z M120.1,222.6l-1.7,2.9l2.5,1.5c0.7,0.4,1.3,0.6,1.8,0.6c0.5,0,0.9-0.3,1.2-0.8c0.3-0.5,0.4-1,0.3-1.3
				c-0.1-0.4-0.4-0.7-1-1.1L120.1,222.6z M123,217.7l-1.5,2.6l2.6,1.5c0.5,0.3,1,0.5,1.4,0.4c0.4-0.1,0.7-0.3,1-0.7
				c0.3-0.5,0.4-0.9,0.2-1.3c-0.1-0.3-0.5-0.6-1-1L123,217.7z"/>
			<path class="st1" d="M138,238.2l-10.3-4.3l5.5-13.2l9.7,4.1l-1.1,2.6l-6.4-2.7l-1,2.4l6,2.5l-1.1,2.6l-6-2.5l-1.3,3.1l7,2.9
				L138,238.2z"/>
			<path class="st1" d="M141,239.2l3.8-13.8l6.9,1.9c1.7,0.5,2.8,1.2,3.5,2.2c0.6,1,0.7,2.2,0.3,3.8c-0.2,0.9-0.7,1.6-1.4,2.1
				c-0.7,0.5-1.5,0.8-2.5,0.8l1.7,6.4l-3.9-1.1l-1.4-5.7l-2.2-0.6l-1.4,5L141,239.2z M147.5,228.8l-1,3.7l3.2,0.9
				c0.6,0.2,1.1,0.1,1.5-0.1c0.4-0.2,0.7-0.7,0.8-1.3c0.2-0.6,0.1-1.1-0.1-1.5c-0.2-0.4-0.6-0.7-1.3-0.8L147.5,228.8z"/>
			<path class="st1" d="M155.9,242.8l2.5-14.1l3.5,0.6l-2.5,14.1L155.9,242.8z M158.6,226.9l2.5-2.6l3.6,0.6l-3.7,2.4L158.6,226.9z"
				/>
			<path class="st1" d="M161.6,244l6.5-13.9l3.7,0.3l4.2,14.8l-3.8-0.3l-0.5-2.3l-5.3-0.4l-0.9,2.2L161.6,244z M167.4,239.5l3.7,0.3
				l-1.4-6.1L167.4,239.5z"/>
			<path class="st1" d="M184.5,245.1l-1.1-14.3l7-0.6c1.6-0.1,2.9,0.1,3.7,0.6c0.9,0.5,1.3,1.4,1.4,2.7c0.1,0.8-0.1,1.6-0.6,2.1
				c-0.5,0.6-1.2,1-2.2,1.4c1.1,0,1.9,0.2,2.6,0.7c0.7,0.5,1.1,1.3,1.2,2.3c0.1,1.4-0.3,2.4-1.2,3.2c-0.9,0.8-2.4,1.2-4.3,1.4
				L184.5,245.1z M187,233.2l0.2,3l3-0.2c0.6-0.1,1.1-0.2,1.4-0.5c0.3-0.3,0.4-0.7,0.4-1.2c0-0.6-0.2-1-0.6-1.2
				c-0.3-0.2-0.8-0.2-1.4-0.2L187,233.2z M187.5,238.8l0.3,3.4l2.9-0.2c0.8-0.1,1.4-0.3,1.8-0.6c0.4-0.3,0.5-0.7,0.5-1.3
				c0-0.6-0.2-1-0.5-1.3c-0.3-0.2-0.8-0.3-1.4-0.3L187.5,238.8z"/>
			<path class="st1" d="M212.3,233.8c0.4,2.1,0.2,3.9-0.8,5.6c-1,1.8-2.6,2.9-4.8,3.3c-2.2,0.4-4.1,0.1-5.7-1.1
				c-1.5-1.1-2.5-2.7-2.9-4.8c-0.4-2.1-0.2-3.9,0.8-5.6c1-1.8,2.6-2.9,4.8-3.3c2.2-0.4,4.1-0.1,5.7,1.1
				C210.9,230.1,211.8,231.7,212.3,233.8z M208.8,234.5c-0.3-1.2-0.7-2.2-1.4-2.9c-0.8-0.8-1.9-1.1-3.1-0.8
				c-1.1,0.2-1.9,0.8-2.3,1.6c-0.5,0.9-0.6,2.1-0.3,3.6c0.3,1.2,0.7,2.2,1.4,2.8c0.8,0.8,1.9,1.1,3.1,0.9c1.2-0.2,2-0.9,2.5-2
				C209,236.8,209,235.8,208.8,234.5z"/>
			<path class="st1" d="M223.7,222.3l3.1,8.8c0.6,1.7,0.4,3.2-0.5,4.6c-0.8,1.1-1.9,2-3.4,2.5c-1.5,0.5-2.9,0.6-4.2,0.2
				c-1.6-0.5-2.7-1.6-3.3-3.3l-3.1-8.8l3.4-1.2l3,8.5c0.3,0.9,0.7,1.5,1.3,1.8c0.5,0.3,1.2,0.3,2,0.1c0.8-0.3,1.3-0.7,1.5-1.3
				c0.2-0.6,0.2-1.3-0.1-2.2l-3-8.5L223.7,222.3z"/>
			<path class="st1" d="M225.8,224.4l-1.2-2.5l9.9-4.9l1.2,2.5l-3.4,1.7l5.1,10.4l-3.2,1.6l-5.1-10.4L225.8,224.4z"/>
			<path class="st1" d="M242.9,228.6l-7.5-12.3l3.1-1.9l7.5,12.3L242.9,228.6z"/>
			<path class="st1" d="M260.4,214.4l0.8,2.7c-0.6,0.4-1.3,0.7-2.2,0.8c-0.7,0.1-1.3,0.2-1.9,0.1c-0.2,0.6-0.5,1.1-0.9,1.6
				c-0.4,0.5-0.8,0.9-1.3,1.3c-1.7,1.4-3.6,1.9-5.6,1.6c-1.9-0.3-3.5-1.3-4.8-2.9c-1.3-1.6-1.9-3.4-1.8-5.3c0.1-2,1-3.7,2.7-5.1
				c1.7-1.4,3.6-1.9,5.6-1.6c1.9,0.3,3.5,1.3,4.8,2.9c0.6,0.7,1,1.5,1.3,2.2c0.3,0.8,0.5,1.6,0.5,2.4c0.3,0.1,0.7,0.1,1.2-0.1
				C259.4,214.9,259.9,214.7,260.4,214.4z M253,212.7c-0.8-1-1.7-1.6-2.6-1.9c-1.1-0.3-2.1-0.1-3.1,0.7c-0.9,0.7-1.3,1.5-1.4,2.5
				c-0.1,1,0.4,2.2,1.4,3.4c0.8,1,1.6,1.6,2.5,1.9c1.1,0.4,2.2,0.2,3.2-0.6c1-0.8,1.4-1.7,1.3-2.9
				C254.2,214.7,253.7,213.7,253,212.7z"/>
			<path class="st1" d="M259.6,194.7l7.3,5.9c1.4,1.1,2.1,2.5,2,4.2c-0.1,1.4-0.6,2.7-1.6,3.9c-1,1.2-2.2,2-3.5,2.4
				c-1.6,0.4-3.1,0.1-4.5-1.1l-7.3-5.9l2.3-2.8l7,5.7c0.7,0.6,1.4,0.9,2,0.8c0.6,0,1.2-0.4,1.7-1c0.5-0.6,0.7-1.3,0.6-1.9
				c-0.1-0.6-0.5-1.2-1.2-1.8l-7-5.7L259.6,194.7z"/>
			<path class="st1" d="M278.1,189.1l-4.6,10.2l-13.1-5.9l4.4-9.6l2.5,1.1l-2.9,6.4l2.4,1.1l2.7-5.9l2.5,1.1l-2.7,5.9l3.1,1.4
				l3.1-6.9L278.1,189.1z"/>
		</g>
		<g>
			<g>
				<path class="st1" d="M109.1,66.8l-7.6,9L89.2,65.3l7.2-8.5l2.4,2L94,64.4l2.2,1.9l4.5-5.2l2.4,2l-4.5,5.2l2.9,2.5l5.2-6.1
					L109.1,66.8z"/>
				<path class="st1" d="M107.2,64.6l0.8-3.4c1.9,0,3.5-0.5,4.6-1.5c0.5-0.4,0.8-0.9,1-1.5c0.3-0.7,0.2-1.3-0.2-1.8
					c-0.5-0.6-1.3-0.5-2.2,0.1l-2.7,1.7c-2.5,1.6-4.5,1.5-6.2-0.3c-1.2-1.3-1.7-2.8-1.5-4.4c0.2-1.4,1-2.7,2.3-3.9
					c2-1.8,4.3-2.6,7-2.3l-0.6,3.6c-1.7-0.3-3.2,0.1-4.4,1.3c-0.4,0.3-0.6,0.8-0.7,1.3c-0.1,0.6-0.1,1,0.3,1.4
					c0.5,0.6,1.4,0.5,2.6-0.3l1.2-0.8c1.5-1,2.7-1.5,3.8-1.7c1.3-0.2,2.4,0.2,3.4,1.3c1.5,1.6,2,3.3,1.4,5.1
					c-0.4,1.3-1.2,2.6-2.6,3.9C112.5,64.1,110.1,64.9,107.2,64.6z"/>
				<path class="st1" d="M112,46.4l-1.9-2.5l9.4-6.9l1.9,2.5l-3.2,2.3l7.7,10.5l-3.1,2.2l-7.7-10.5L112,46.4z"/>
				<path class="st1" d="M130.4,49.3L122,35.5l3.2-2l8.4,13.8L130.4,49.3z"/>
				<path class="st1" d="M135.9,46l-7.2-14.5l3.4-1.7l5.7,11.4l5.3-2.6l1.5,3L135.9,46z"/>
				<path class="st1" d="M146.3,41.1L140.4,26l3.5-1.4l5.8,15.1L146.3,41.1z"/>
				<path class="st1" d="M150,36.4l2.3-2.7c1.7,0.9,3.3,1.2,4.8,0.8c0.6-0.2,1.2-0.5,1.6-0.9c0.6-0.5,0.8-1.1,0.6-1.7
					c-0.2-0.7-0.9-1-2-0.9l-3.2,0.3c-2.9,0.3-4.7-0.8-5.3-3.2c-0.5-1.8-0.2-3.3,0.7-4.6c0.8-1.1,2.1-1.9,3.8-2.4
					c2.6-0.7,5-0.3,7.3,1.3l-2.2,2.9c-1.4-1.1-2.9-1.4-4.5-0.9c-0.5,0.1-0.9,0.4-1.2,0.8c-0.4,0.4-0.5,0.9-0.4,1.4
					c0.2,0.8,1,1.1,2.4,0.9l1.5-0.1c1.8-0.2,3.1-0.1,4.1,0.3c1.2,0.5,2,1.4,2.4,2.7c0.6,2.1,0.2,3.8-1.1,5.2c-1,1-2.3,1.7-4.1,2.2
					C154.9,38.5,152.4,38,150,36.4z"/>
				<path class="st1" d="M163,22.6l-0.4-3.1l11.6-1.4l0.4,3.1l-3.9,0.5l1.6,12.9l-3.8,0.5l-1.6-12.9L163,22.6z"/>
				<path class="st1" d="M174.4,34l5.8-16.1l3.9,0.1l5.5,16.2l-4.1-0.1l-0.7-2.5l-5.6-0.1l-0.8,2.5L174.4,34z M180.1,28.6l3.9,0.1
					l-1.9-6.7L180.1,28.6z"/>
				<path class="st1" d="M212.5,22.5L210,32.8c-0.5,2-1.5,3.3-3.2,4.1c-1.4,0.6-2.9,0.7-4.5,0.3c-1.6-0.4-2.9-1.2-3.8-2.4
					c-1.1-1.4-1.4-3.1-1-5.1l2.5-10.2l3.7,0.9l-2.4,9.9c-0.2,1-0.2,1.8,0.1,2.4c0.3,0.6,0.9,1,1.7,1.2c0.9,0.2,1.6,0.1,2.1-0.3
					c0.6-0.4,1-1.1,1.2-2.1l2.4-9.9L212.5,22.5z"/>
				<path class="st1" d="M210.9,39l6.3-14.9l3.5,1.5l1.1,11.7l4-9.5l3.2,1.3l-6.3,14.9l-3.5-1.5l-1.2-11.5l-3.9,9.4L210.9,39z"/>
				<path class="st1" d="M224.9,45.3l7.8-14.1l3.3,1.8l-7.8,14.1L224.9,45.3z"/>
				<path class="st1" d="M231,45.2l3.5,0c0.4,1.9,1.2,3.3,2.5,4.2c0.5,0.4,1.1,0.6,1.7,0.7c0.8,0.1,1.3-0.1,1.7-0.6
					c0.4-0.6,0.2-1.3-0.6-2.1l-2.3-2.2c-2.1-2.1-2.4-4.1-1-6.1c1-1.5,2.4-2.3,4-2.4c1.4-0.1,2.8,0.4,4.3,1.4
					c2.2,1.5,3.5,3.7,3.7,6.4l-3.6,0.2c-0.1-1.7-0.8-3.1-2.2-4c-0.4-0.3-0.9-0.4-1.4-0.4c-0.6,0-1,0.2-1.3,0.6
					c-0.4,0.6-0.2,1.5,0.9,2.5l1,1c1.3,1.2,2.1,2.3,2.4,3.3c0.5,1.2,0.3,2.4-0.5,3.6c-1.2,1.8-2.8,2.6-4.6,2.5
					c-1.4-0.1-2.8-0.7-4.3-1.7C232.5,50.3,231.3,48.1,231,45.2z"/>
				<path class="st1" d="M250.8,64.4l-8.8-7.9l10.8-12l8.3,7.4l-2.1,2.3l-5.5-4.9l-2,2.2l5.1,4.6l-2.1,2.3l-5.1-4.6l-2.5,2.8l6,5.3
					L250.8,64.4z"/>
				<path class="st1" d="M251,64.5l10.4-1.3l2.4-8.7l3,3.5l-1.9,5.3l5.5-1.1l3,3.4l-8.9,1.1l-2.7,10.1l-3-3.5l2.3-6.6l-6.9,1.3
					L251,64.5z"/>
			</g>
		</g>
	</g>
</g>
</svg>
