<svg xmlns="http://www.w3.org/2000/svg" viewBox="0 0 357.75 261.27"><defs><style>.cls-1{fill:#ceac5b;}.cls-2{fill:#fff;}.cls-3{fill:#9f8b5c;}</style></defs><title>isologo</title><g id="Capa_2" data-name="Capa 2"><g id="Capa_1-2" data-name="Capa 1"><path class="cls-1" d="M306.48,98.41H51.82l1.38-4.64a131.47,131.47,0,0,1,251.89,0Z"/><path class="cls-2" d="M62.31,90.64H296a123.51,123.51,0,0,0-233.67,0Z"/><path class="cls-1" d="M179.14,261.27A131,131,0,0,1,56.31,175.21l-1.75-4.82H303.71L302,175.21A131,131,0,0,1,179.14,261.27Z"/><path class="cls-2" d="M64.93,177.58a123.5,123.5,0,0,0,228.42,0Z"/><path class="cls-1" d="M127.62,28.51a4.32,4.32,0,0,1,2.8,2.45,3.19,3.19,0,0,1-.23,3.59,3,3,0,0,1,2.2.53,4.46,4.46,0,0,1,1.47,1.56q2.17,4.16-2.58,6.64l-6,3.14L117.9,32.27l6-3.14A5.29,5.29,0,0,1,127.62,28.51Zm-4.4,8.21,3.66-1.91q2-1,1.2-2.55a2,2,0,0,0-1.11-.93,2.14,2.14,0,0,0-1.79.23l-3.66,1.91Zm3.12,6L130,40.78a4.65,4.65,0,0,0,1-.68,2.27,2.27,0,0,0,.63-1,1.57,1.57,0,0,0-.13-1.24,1.84,1.84,0,0,0-1.51-1,3.17,3.17,0,0,0-1.88.31l-3.66,1.91Z"/><path class="cls-1" d="M147.08,33.58,140,36l-.18,3.24-2.76,1,.86-17.16,2.78-1,11.27,13-2.78,1Zm-6.66-7.84L140.12,33l5-1.74Z"/><path class="cls-1" d="M166.62,32.4l-3,.55-5-4.5-2.69.49,1,5.24-2.65.48L151.29,19l3.34-.6,3.36-.6a4.87,4.87,0,0,1,4,.86A5.4,5.4,0,0,1,164,22a5.93,5.93,0,0,1-.27,3.3,4.16,4.16,0,0,1-2.39,2.28l5.24,4.58ZM154.45,21.26l.92,5,4-.74a2.24,2.24,0,0,0,1.66-1.07,2.73,2.73,0,0,0,.29-1.88,2.7,2.7,0,0,0-.95-1.66,2.24,2.24,0,0,0-1.92-.41Z"/><path class="cls-1" d="M179.17,17.08a4.32,4.32,0,0,1,1.46,3.42,3.19,3.19,0,0,1-1.76,3.14,3,3,0,0,1,1.76,1.43,4.46,4.46,0,0,1,.65,2q.16,4.69-5.19,4.87l-6.78.23-.54-15.94,6.78-.23A5.29,5.29,0,0,1,179.17,17.08Zm-7.52,5.49,4.12-.14q2.25-.07,2.19-1.78a2,2,0,0,0-.6-1.31,2.15,2.15,0,0,0-1.72-.57l-4.13.14Zm.23,6.74,4.13-.14a4.69,4.69,0,0,0,1.19-.19,2.26,2.26,0,0,0,1-.64,1.56,1.56,0,0,0,.42-1.18,1.84,1.84,0,0,0-.92-1.56,3.17,3.17,0,0,0-1.83-.53l-4.12.14Z"/><path class="cls-1" d="M195.2,33.13,184.55,32l1.69-15.85,10.65,1.14-.31,2.9-8-.85L188.21,23l7.7.82-.3,2.79-7.7-.82-.38,3.58,8,.85Z"/><path class="cls-1" d="M210.8,36.81l-3-.75-2.72-6.18-2.65-.67-1.3,5.17-2.62-.66,3.89-15.48,3.29.84,3.31.84a4.87,4.87,0,0,1,3.28,2.43,5.4,5.4,0,0,1,.42,3.94,5.93,5.93,0,0,1-1.61,2.89A4.16,4.16,0,0,1,208,30.27l2.87,6.33Zm-6.46-15.17-1.24,4.95,4,1a2.24,2.24,0,0,0,2-.28,2.73,2.73,0,0,0,1-1.59,2.7,2.7,0,0,0-.17-1.9,2.24,2.24,0,0,0-1.58-1.17Z"/><path class="cls-1" d="M213.42,37.93l5.51-15,2.51.92-5.5,15Zm11.44-17.78-2.76-1-2.49,2.39,0,.13,2.07.76,3.19-2.15Z"/><path class="cls-1" d="M230,42l-6.69-3.34-2.44,2.14-2.61-1.31,12.86-11.4,2.63,1.31L232.35,46.5l-2.63-1.31Zm.94-10.25-5.41,4.88L230.27,39Z"/><path class="cls-1" d="M98.72,212.6l-7.09-7.49,11.19-10.72,7.09,7.49-2,2-5.32-5.62L100,200.69l5.13,5.42-2,1.88L98,202.57,95.48,205l5.32,5.62Z"/><path class="cls-1" d="M115.84,211.72a3.1,3.1,0,0,0-.23-1.76,4,4,0,0,0-1.21-1.65,3.37,3.37,0,0,0-2-.9,1.8,1.8,0,0,0-1.5.69,1.36,1.36,0,0,0-.31,1.1,2.67,2.67,0,0,0,.45,1.13,11.39,11.39,0,0,0,1,1.22,17.07,17.07,0,0,1,1.12,1.31,7.77,7.77,0,0,1,.82,1.37,4.28,4.28,0,0,1,.43,1.46,3.84,3.84,0,0,1-.22,1.54,5.32,5.32,0,0,1-.95,1.67,4.56,4.56,0,0,1-5.07,1.6,7.79,7.79,0,0,1-2.53-1.42q-3.59-2.92-2.26-6.75l2.47.39a3.37,3.37,0,0,0,0,2.37,4.63,4.63,0,0,0,1.46,2,4.14,4.14,0,0,0,2.12,1,1.93,1.93,0,0,0,1.8-.79q1.2-1.48-1-3.79a13.31,13.31,0,0,1-1.34-1.62,7,7,0,0,1-.82-1.66,3.25,3.25,0,0,1-.09-1.87,4.89,4.89,0,0,1,1-1.92,4,4,0,0,1,2.26-1.47,4.45,4.45,0,0,1,2.48.1,7.55,7.55,0,0,1,2.24,1.24q3.16,2.58,2.26,5.81Z"/><path class="cls-1" d="M123.16,215.49l-3.7-2.33,1.41-2.25,9.59,6-1.41,2.25-3.7-2.33-6.84,10.87-2.2-1.38Z"/><path class="cls-1" d="M125.38,231.65l7.07-13.8,2.3,1.17-7.07,13.8Z"/><path class="cls-1" d="M140.23,221.54,135.4,233.4l6.57,2.65-1,2.5-9-3.63,5.85-14.36Z"/><path class="cls-1" d="M144.29,239.54l4.59-14.81,2.47.75-4.59,14.81Z"/><path class="cls-1" d="M161.86,231.74a3.06,3.06,0,0,0-1-1.45,4,4,0,0,0-1.83-.89,3.4,3.4,0,0,0-2.2.14,1.83,1.83,0,0,0-1,1.31A1.34,1.34,0,0,0,156,232a2.62,2.62,0,0,0,.92.78,11.38,11.38,0,0,0,1.46.61A16.89,16.89,0,0,1,160,234a7.65,7.65,0,0,1,1.35.83,4.22,4.22,0,0,1,1,1.09,3.79,3.79,0,0,1,.51,1.46,5.29,5.29,0,0,1-.08,1.91,4.62,4.62,0,0,1-3.78,3.77,7.81,7.81,0,0,1-2.91-.08q-4.53-.91-5.1-4.91l2.38-.81a3.32,3.32,0,0,0,1.08,2.09,4.6,4.6,0,0,0,2.22,1.08,4.18,4.18,0,0,0,2.34-.12,2,2,0,0,0,1.25-1.53q.39-1.86-2.66-2.86a13.16,13.16,0,0,1-1.93-.81,6.93,6.93,0,0,1-1.49-1.08,3.21,3.21,0,0,1-.94-1.61,4.88,4.88,0,0,1,0-2.16,4.08,4.08,0,0,1,1.34-2.35,4.52,4.52,0,0,1,2.26-1.07,7.59,7.59,0,0,1,2.56.05q4,.8,4.67,4.08Z"/><path class="cls-1" d="M170.14,231.66l-4.36-.33.23-2.65,11.31.85-.23,2.65-4.36-.33-1.12,12.8-2.59-.19Z"/><path class="cls-1" d="M188,241.68l-7.2.33-1.09,3-2.81.13,5.67-15.79,2.83-.13L192,244.42l-2.83.13Zm-3.9-9.15-2.34,6.72,5.11-.24Z"/><path class="cls-1" d="M209.09,225.1l2,8.66a7.46,7.46,0,0,1-.45,5.4,5.65,5.65,0,0,1-3.81,2.77,5.77,5.77,0,0,1-4.65-.72,7,7,0,0,1-2.83-4.6l-2-8.66,2.51-.6,2,8.66a4.63,4.63,0,0,0,1.64,2.86,3.22,3.22,0,0,0,2.77.47,3,3,0,0,0,2.16-1.68,5,5,0,0,0,.17-3.28l-2-8.66Z"/><path class="cls-1" d="M224.21,230.47l-3.75-9.74,2.41-1,5.57,14.47-2,.78L216,228.11l3.71,9.63-2.41,1-5.57-14.47,2-.78Z"/><path class="cls-1" d="M232.81,232l-7-13.81,2.28-1.2,7,13.81Z"/><path class="cls-1" d="M239.94,214.1a3.05,3.05,0,0,0-1.74-.33,4,4,0,0,0-1.93.65,3.39,3.39,0,0,0-1.48,1.64,1.83,1.83,0,0,0,.18,1.65,1.34,1.34,0,0,0,.94.64,2.62,2.62,0,0,0,1.21-.08,11.21,11.21,0,0,0,1.47-.58,17.07,17.07,0,0,1,1.59-.66,7.66,7.66,0,0,1,1.55-.36,4.2,4.2,0,0,1,1.51,0,3.79,3.79,0,0,1,1.38.69,5.28,5.28,0,0,1,1.28,1.43,4.63,4.63,0,0,1-.07,5.34,7.81,7.81,0,0,1-2.14,2q-3.88,2.52-7.08,0l1.14-2.24a3.32,3.32,0,0,0,2.23.74,4.6,4.6,0,0,0,2.34-.78,4.18,4.18,0,0,0,1.59-1.72,2,2,0,0,0-.18-2q-1-1.61-3.9-.19a13.2,13.2,0,0,1-1.95.77,6.91,6.91,0,0,1-1.82.27,3.2,3.2,0,0,1-1.8-.5,4.88,4.88,0,0,1-1.49-1.57,4.1,4.1,0,0,1-.68-2.62,4.54,4.54,0,0,1,.87-2.34,7.55,7.55,0,0,1,1.87-1.75q3.42-2.22,6.19-.35Z"/><path class="cls-1" d="M259.52,213.52l-7.89,6.65-9.89-11.94,7.89-6.65,1.81,2.18-5.91,5,2.27,2.75,5.7-4.81,1.74,2.1-5.7,4.81,2.23,2.7,5.91-5Z"/><path class="cls-1" d="M257.19,193.58l1.94-2.1.1.09,2.34,8.57,8.92,1.77.06.06-2,2.14-6.65-1.39,1.87,6.57-2,2.14-.06-.06-2.42-8.81-8.65-1.73-.1-.09,1.94-2.1,6.56,1.42Z"/><polygon class="cls-1" points="357.75 198.67 287.18 198.67 287.18 191.49 343.01 191.49 318.5 160.12 343.01 128.76 313.14 128.76 313.14 121.58 357.75 121.58 327.61 160.12 357.75 198.67"/><path class="cls-1" d="M179.14,220.78a90.36,90.36,0,0,1-78.38-45.62l-2-3.58H259.56l-2,3.58A90.37,90.37,0,0,1,179.14,220.78Zm-72.07-44.41a85.37,85.37,0,0,0,144.14,0Z"/><path class="cls-1" d="M263.23,97.21H95.06l1.55-3.41a90.7,90.7,0,0,1,165.06,0ZM102.64,92.39h153a85.89,85.89,0,0,0-153,0Z"/><polygon class="cls-3" points="293.35 179.4 313.98 181.09 293.35 182.78 293.35 179.4"/><polygon class="cls-1" points="71.41 198.67 0 198.67 30.13 160.12 0 121.58 44.61 121.58 44.61 128.76 14.73 128.76 39.25 160.12 14.73 191.49 71.41 191.49 71.41 198.67"/><path class="cls-1" d="M132.31,63.92c32.55-.43,65.11-1.2,97.66-1.72,1.43,0,1.43-.48,0-.51-32.54-.52-65.11-1.29-97.66-1.72C121.16,59.82,121.14,64.07,132.31,63.92Z"/><path class="cls-1" d="M144.36,53.45c24.59-.43,49.2-1.2,73.79-1.72,1.08,0,1.08-.48,0-.51-24.59-.52-49.2-1.29-73.79-1.72C135.94,49.35,135.92,53.6,144.36,53.45Z"/><path class="cls-1" d="M115.74,85.71c44.48-.43,89-1.2,133.46-1.72,2,0,2-.48,0-.51-44.48-.52-89-1.29-133.46-1.72C100.51,81.61,100.48,85.86,115.74,85.71Z"/><path class="cls-1" d="M128.05,198.5c36.47-.43,73-1.19,109.44-1.71,1.6,0,1.61-.48,0-.51-36.47-.52-73-1.28-109.44-1.71C115.56,194.43,115.54,198.65,128.05,198.5Z"/><path class="cls-1" d="M118.39,187.38c42.63-.43,85.27-1.19,127.9-1.71,1.87,0,1.88-.48,0-.51-42.62-.52-85.28-1.28-127.9-1.71C103.79,183.3,103.77,187.53,118.39,187.38Z"/><path class="cls-1" d="M297.18,183.05c5.54-.43,11.08-1.19,16.62-1.71.24,0,.24-.48,0-.51-5.54-.52-11.08-1.28-16.62-1.71C295.29,179,295.28,183.2,297.18,183.05Z"/><path class="cls-1" d="M295,188.74c6.27-.43,12.55-1.19,18.82-1.71a.26.26,0,0,0,0-.51c-6.27-.52-12.55-1.28-18.82-1.71C292.81,184.66,292.81,188.88,295,188.74Z"/><path class="cls-1" d="M62.43,184.81c-6.07.43-12.14,1.19-18.21,1.71a.26.26,0,0,0,0,.51c6.07.52,12.14,1.28,18.21,1.71C64.51,188.88,64.51,184.66,62.43,184.81Z"/><path class="cls-1" d="M63,179.12c-6.27.43-12.55,1.19-18.82,1.71a.26.26,0,0,0,0,.51c6.27.52,12.55,1.28,18.82,1.71C65.19,183.2,65.2,179,63,179.12Z"/><path class="cls-1" d="M122.33,75.13c40.34-.43,80.7-1.2,121-1.72,1.77,0,1.78-.48,0-.51-40.34-.52-80.7-1.29-121-1.72C108.52,71,108.5,75.28,122.33,75.13Z"/><path class="cls-1" d="M142.22,209.95c26.75-.43,53.52-1.19,80.27-1.71,1.18,0,1.18-.48,0-.51-26.75-.52-53.52-1.28-80.27-1.71C133.06,205.87,133,210.09,142.22,209.95Z"/><rect class="cls-1" x="40.43" y="90.72" width="276.36" height="86.93"/><rect class="cls-2" x="47.61" y="97.9" width="261.99" height="72.56"/><path class="cls-1" d="M60.35,108.41h10q5.74,0,8.77,3.55t3,9.93V146.3q0,7.33-3.2,10.81t-9.2,3.48H60.35Zm6.73,45.15h3.1q2.83,0,4-1.58A8.26,8.26,0,0,0,75.38,147V121.89a8.57,8.57,0,0,0-1.12-4.76q-1.12-1.69-4.09-1.69h-3.1Z"/><path class="cls-1" d="M88,108.41h6.73v52.18H88Z"/><path class="cls-1" d="M100.7,108.41h20v7H107.43v15.32H119v7H107.43v15.32h13.32v7.48h-20Z"/><path class="cls-1" d="M124.11,120.72a14.63,14.63,0,0,1,1-5.57,11.64,11.64,0,0,1,2.6-4,11.06,11.06,0,0,1,3.63-2.38,10.6,10.6,0,0,1,8.11,0,11.08,11.08,0,0,1,3.63,2.38,11.66,11.66,0,0,1,2.6,4,14.63,14.63,0,0,1,1,5.57v2.64h-6.73v-2.64a5.28,5.28,0,0,0-1.35-4,4.63,4.63,0,0,0-6.4,0,5.28,5.28,0,0,0-1.35,4v27.56a5.27,5.27,0,0,0,1.35,4,4.63,4.63,0,0,0,6.4,0,5.28,5.28,0,0,0,1.35-4v-9.82h-5.34v-6.6h12.07v16.42a14.55,14.55,0,0,1-1,5.61,11.71,11.71,0,0,1-2.6,4,11,11,0,0,1-3.63,2.38,10.6,10.6,0,0,1-8.11,0,11,11,0,0,1-3.63-2.38,11.69,11.69,0,0,1-2.6-4,14.55,14.55,0,0,1-1-5.61Z"/><path class="cls-1" d="M151.6,120.72a14.63,14.63,0,0,1,1-5.57,11.64,11.64,0,0,1,2.6-4,11.06,11.06,0,0,1,3.63-2.38,10.6,10.6,0,0,1,8.11,0,11.08,11.08,0,0,1,3.63,2.38,11.66,11.66,0,0,1,2.6,4,14.63,14.63,0,0,1,1,5.57v27.56a14.55,14.55,0,0,1-1,5.61,11.71,11.71,0,0,1-2.6,4,11,11,0,0,1-3.63,2.38,10.6,10.6,0,0,1-8.11,0,11,11,0,0,1-3.63-2.38,11.69,11.69,0,0,1-2.6-4,14.55,14.55,0,0,1-1-5.61Zm6.73,27.56a5.27,5.27,0,0,0,1.35,4,4.63,4.63,0,0,0,6.4,0,5.28,5.28,0,0,0,1.35-4V120.72a5.28,5.28,0,0,0-1.35-4,4.63,4.63,0,0,0-6.4,0,5.28,5.28,0,0,0-1.35,4Z"/><path class="cls-1" d="M185.63,108.41h10q5.74,0,8.77,3.55t3,9.93V146.3q0,7.33-3.2,10.81t-9.2,3.48h-9.36Zm6.73,45.15h3.1q2.83,0,4-1.58a8.26,8.26,0,0,0,1.19-4.95V121.89a8.57,8.57,0,0,0-1.12-4.76q-1.12-1.69-4.09-1.69h-3.1Z"/><path class="cls-1" d="M219.79,108.41h5.6l10.48,52.18h-6.73l-2-11.21H218l-2,11.21H209.3Zm2.84,15h-.13l-3.3,18.91h6.73Z"/><path class="cls-1" d="M238.58,108.41h10.09a13.63,13.63,0,0,1,4.88.81,9.39,9.39,0,0,1,3.82,2.86,11.6,11.6,0,0,1,2.37,4.8,33.31,33.31,0,0,1,.66,7.44,41.19,41.19,0,0,1-.36,5.9,13.3,13.3,0,0,1-1.55,4.58,10.38,10.38,0,0,1-3.69,4,11.4,11.4,0,0,1-6.07,1.43H245.3v20.38h-6.73Zm6.73,24.77h3.23a6.29,6.29,0,0,0,3.17-.66,4,4,0,0,0,1.65-1.8A7.63,7.63,0,0,0,254,128q.1-1.61.1-3.59t-.1-3.48a9,9,0,0,0-.59-2.86,4.08,4.08,0,0,0-1.55-1.91,5.51,5.51,0,0,0-3-.7H245.3Z"/><path class="cls-1" d="M264.43,108.41h6.73v7.48l-6.73,5.42Z"/><path class="cls-1" d="M296.67,123.43h-6.73v-1.69a8.66,8.66,0,0,0-1.09-4.43,3.89,3.89,0,0,0-3.66-1.87,4.06,4.06,0,0,0-2.28.59,4.13,4.13,0,0,0-1.38,1.5,6.75,6.75,0,0,0-.69,2.13,15.68,15.68,0,0,0-.2,2.53q0,1.54.1,2.6a5,5,0,0,0,.5,1.83,4,4,0,0,0,1.15,1.36,10.13,10.13,0,0,0,2.08,1.17l5.14,2.27a12.51,12.51,0,0,1,3.63,2.24,9,9,0,0,1,2.14,3,13.84,13.84,0,0,1,1,4,44.18,44.18,0,0,1,.26,5.09,29.75,29.75,0,0,1-.59,6.12,13.65,13.65,0,0,1-1.95,4.84,9.59,9.59,0,0,1-3.59,3.19,11.71,11.71,0,0,1-5.47,1.17,11,11,0,0,1-8.18-3.55,12.4,12.4,0,0,1-2.41-3.92,13.34,13.34,0,0,1-.89-4.91v-2.79h6.73v2.35a6.57,6.57,0,0,0,1.09,3.7,4.05,4.05,0,0,0,3.66,1.65,5.39,5.39,0,0,0,2.67-.55,3.59,3.59,0,0,0,1.45-1.54,6.88,6.88,0,0,0,.63-2.46q.13-1.47.13-3.22,0-2.05-.13-3.37a5.82,5.82,0,0,0-.56-2.13,3.64,3.64,0,0,0-1.19-1.32,15.33,15.33,0,0,0-2-1.1l-4.81-2.2q-4.35-2-5.84-5.24a19.75,19.75,0,0,1-1.48-8.17,20.91,20.91,0,0,1,.73-5.57,13.53,13.53,0,0,1,2.14-4.54,10.43,10.43,0,0,1,3.59-3,10.82,10.82,0,0,1,5.08-1.14,10.21,10.21,0,0,1,4.58,1,11.44,11.44,0,0,1,3.56,2.71,12.22,12.22,0,0,1,2.28,3.77,12,12,0,0,1,.79,4.29Z"/></g></g></svg>