<svg xmlns="http://www.w3.org/2000/svg" viewBox="0 0 214.17 207.79"><defs><style>.cls-1{fill:#060000;}.cls-2{fill:#ceac5b;}</style></defs><title>isologo-cuadrado_4</title><g id="Capa_2" data-name="Capa 2"><g id="Capa_1-2" data-name="Capa 1"><rect class="cls-1" x="0.39" y="3.19" width="213" height="204.23"/><path class="cls-2" d="M214.17,207.79H0V0H214.17ZM8.9,198.88H205.27V8.9H8.9Z"/><path class="cls-2" d="M28.09,28.12H41.72q7.86,0,12,4.87t4.15,13.6V80q0,10-4.38,14.81t-12.6,4.77H28.09ZM37.3,90h4.24q3.88,0,5.51-2.16T48.68,81V46.59a11.74,11.74,0,0,0-1.53-6.53q-1.54-2.31-5.6-2.31H37.3Z"/><path class="cls-2" d="M66,28.12h9.21V99.59H66Z"/><path class="cls-2" d="M83.35,28.12h27.45v9.64H92.57v21h15.9v9.64H92.57v21h18.24V99.59H83.35Z"/><path class="cls-2" d="M115.41,45a20,20,0,0,1,1.35-7.63,15.94,15.94,0,0,1,3.57-5.47,15.14,15.14,0,0,1,5-3.26,14.53,14.53,0,0,1,11.11,0,15.17,15.17,0,0,1,5,3.26,16,16,0,0,1,3.57,5.47A20,20,0,0,1,146.3,45V48.6h-9.21V45q0-3.71-1.85-5.47a6.34,6.34,0,0,0-8.76,0q-1.85,1.76-1.85,5.47V82.73q0,3.71,1.85,5.47a6.34,6.34,0,0,0,8.76,0q1.85-1.75,1.85-5.47V69.28h-7.31v-9H146.3V82.73a19.93,19.93,0,0,1-1.35,7.68,16,16,0,0,1-3.57,5.42,15.11,15.11,0,0,1-5,3.26,14.53,14.53,0,0,1-11.11,0,15.09,15.09,0,0,1-5-3.26,16,16,0,0,1-3.57-5.42,19.93,19.93,0,0,1-1.35-7.68Z"/><path class="cls-2" d="M153.07,45a20,20,0,0,1,1.35-7.63A15.94,15.94,0,0,1,158,31.89a15.14,15.14,0,0,1,5-3.26,14.53,14.53,0,0,1,11.11,0,15.17,15.17,0,0,1,5,3.26,16,16,0,0,1,3.57,5.47A20,20,0,0,1,184,45V82.73a19.93,19.93,0,0,1-1.35,7.68A16,16,0,0,1,179,95.83a15.11,15.11,0,0,1-5,3.26,14.53,14.53,0,0,1-11.11,0,15.09,15.09,0,0,1-5-3.26,16,16,0,0,1-3.57-5.42,19.93,19.93,0,0,1-1.35-7.68Zm9.21,37.74q0,3.71,1.85,5.47a6.34,6.34,0,0,0,8.76,0q1.85-1.75,1.85-5.47V45q0-3.71-1.85-5.47a6.34,6.34,0,0,0-8.76,0q-1.85,1.76-1.85,5.47Z"/><path class="cls-2" d="M28.09,109H41.72q7.86,0,12,4.87t4.15,13.6v33.43q0,10-4.38,14.81t-12.6,4.77H28.09ZM37.3,170.8h4.24q3.88,0,5.51-2.16t1.62-6.77V127.44a11.74,11.74,0,0,0-1.53-6.53q-1.54-2.31-5.6-2.31H37.3Z"/><path class="cls-2" d="M74.87,109h7.68L96.9,180.44H87.69L85,165.08H72.43l-2.71,15.36H60.51Zm3.88,20.58h-.18l-4.51,25.9h9.21Z"/><path class="cls-2" d="M100.6,109h13.82a18.68,18.68,0,0,1,6.68,1.1,12.85,12.85,0,0,1,5.24,3.91,15.9,15.9,0,0,1,3.25,6.58,45.62,45.62,0,0,1,.9,10.19,56.41,56.41,0,0,1-.5,8.08,18.21,18.21,0,0,1-2.12,6.27,14.22,14.22,0,0,1-5.06,5.47,15.61,15.61,0,0,1-8.31,2h-4.7v27.91H100.6Zm9.21,33.93h4.43a8.61,8.61,0,0,0,4.34-.9,5.5,5.5,0,0,0,2.26-2.46,10.46,10.46,0,0,0,.86-3.76q.14-2.21.14-4.92,0-2.51-.14-4.77a12.28,12.28,0,0,0-.81-3.91,5.58,5.58,0,0,0-2.12-2.61,7.54,7.54,0,0,0-4.15-1h-4.79Z"/><path class="cls-2" d="M136,109h9.21v10.24L136,126.63Z"/><path class="cls-2" d="M182.33,129.55h-9.21v-2.31a11.87,11.87,0,0,0-1.49-6.07,5.33,5.33,0,0,0-5-2.56,5.56,5.56,0,0,0-3.12.8,5.66,5.66,0,0,0-1.9,2.06,9.22,9.22,0,0,0-.95,2.91,21.39,21.39,0,0,0-.27,3.46q0,2.11.14,3.56a6.82,6.82,0,0,0,.68,2.51,5.54,5.54,0,0,0,1.58,1.86,13.92,13.92,0,0,0,2.84,1.61l7,3.11a17.11,17.11,0,0,1,5,3.06,12.36,12.36,0,0,1,2.94,4.12,19,19,0,0,1,1.4,5.42,60.35,60.35,0,0,1,.36,7,40.79,40.79,0,0,1-.81,8.38,18.69,18.69,0,0,1-2.66,6.63,13.15,13.15,0,0,1-4.92,4.37,16,16,0,0,1-7.5,1.61,15.11,15.11,0,0,1-11.2-4.87,17,17,0,0,1-3.3-5.37,18.28,18.28,0,0,1-1.22-6.73v-3.81h9.21v3.21a9,9,0,0,0,1.49,5.07q1.49,2.26,5,2.26a7.4,7.4,0,0,0,3.66-.75,4.93,4.93,0,0,0,2-2.11,9.41,9.41,0,0,0,.86-3.36q.18-2,.18-4.42,0-2.81-.18-4.62a7.94,7.94,0,0,0-.77-2.91,5,5,0,0,0-1.62-1.81,20.89,20.89,0,0,0-2.75-1.5l-6.59-3q-6-2.71-8-7.18a27,27,0,0,1-2-11.19,28.63,28.63,0,0,1,1-7.63,18.53,18.53,0,0,1,2.93-6.22,14.29,14.29,0,0,1,4.92-4.16,14.81,14.81,0,0,1,7-1.56,14,14,0,0,1,6.28,1.41,15.68,15.68,0,0,1,4.88,3.71,16.74,16.74,0,0,1,3.12,5.17,16.44,16.44,0,0,1,1.08,5.87Z"/></g></g></svg>