<svg xmlns="http://www.w3.org/2000/svg" viewBox="0 0 214.2 207.82"><defs><style>.cls-1{fill:#ceac5b;}.cls-2{fill:#060000;}</style></defs><title>isologo-cuadrado</title><g id="Capa_2" data-name="Capa 2"><g id="Capa_1-2" data-name="Capa 1"><rect class="cls-1" x="0.39" y="3.19" width="213.03" height="204.25"/><path class="cls-2" d="M214.2,207.82H0V0H214.2ZM8.9,198.91H205.3V8.9H8.9Z"/><path class="cls-2" d="M28.09,28.12H41.73q7.86,0,12,4.87T57.9,46.6V80q0,10-4.38,14.81t-12.6,4.77H28.09ZM37.3,90h4.25q3.88,0,5.51-2.16T48.68,81V46.6a11.75,11.75,0,0,0-1.53-6.53q-1.54-2.31-5.6-2.31H37.3Z"/><path class="cls-2" d="M66,28.12h9.21V99.61H66Z"/><path class="cls-2" d="M83.37,28.12h27.46v9.64H92.58v21h15.9v9.64H92.58v21h18.25V99.61H83.37Z"/><path class="cls-2" d="M115.43,45a20,20,0,0,1,1.35-7.63,15.94,15.94,0,0,1,3.57-5.47,15.15,15.15,0,0,1,5-3.26,14.53,14.53,0,0,1,11.11,0,15.17,15.17,0,0,1,5,3.26A16,16,0,0,1,145,37.36,20,20,0,0,1,146.32,45v3.61h-9.21V45q0-3.71-1.85-5.47a6.34,6.34,0,0,0-8.76,0q-1.85,1.76-1.85,5.47V82.74q0,3.72,1.85,5.47a6.34,6.34,0,0,0,8.76,0q1.85-1.75,1.85-5.47V69.29h-7.32v-9h16.53V82.74A19.93,19.93,0,0,1,145,90.42a16,16,0,0,1-3.57,5.42,15.11,15.11,0,0,1-5,3.26,14.53,14.53,0,0,1-11.11,0,15.09,15.09,0,0,1-5-3.26,16,16,0,0,1-3.57-5.42,19.93,19.93,0,0,1-1.35-7.68Z"/><path class="cls-2" d="M153.09,45a20,20,0,0,1,1.35-7.63A15.94,15.94,0,0,1,158,31.89a15.15,15.15,0,0,1,5-3.26,14.53,14.53,0,0,1,11.11,0,15.17,15.17,0,0,1,5,3.26,16,16,0,0,1,3.57,5.47A20,20,0,0,1,184,45V82.74a19.93,19.93,0,0,1-1.35,7.68,16,16,0,0,1-3.57,5.42,15.11,15.11,0,0,1-5,3.26,14.53,14.53,0,0,1-11.11,0,15.09,15.09,0,0,1-5-3.26,16,16,0,0,1-3.57-5.42,19.93,19.93,0,0,1-1.35-7.68Zm9.21,37.75q0,3.72,1.85,5.47a6.34,6.34,0,0,0,8.76,0q1.85-1.75,1.85-5.47V45q0-3.71-1.85-5.47a6.34,6.34,0,0,0-8.76,0q-1.85,1.76-1.85,5.47Z"/><path class="cls-2" d="M28.09,109H41.73q7.86,0,12,4.87t4.15,13.6v33.43q0,10-4.38,14.81t-12.6,4.77H28.09Zm9.21,61.84h4.25q3.88,0,5.51-2.16t1.63-6.78V127.46a11.75,11.75,0,0,0-1.53-6.53q-1.54-2.31-5.6-2.31H37.3Z"/><path class="cls-2" d="M74.88,109h7.68l14.36,71.48H87.7L85,165.1H72.44l-2.71,15.36H60.52Zm3.88,20.58h-.18l-4.52,25.9h9.21Z"/><path class="cls-2" d="M100.62,109h13.82a18.68,18.68,0,0,1,6.68,1.11,12.85,12.85,0,0,1,5.24,3.91,15.9,15.9,0,0,1,3.25,6.58,45.63,45.63,0,0,1,.9,10.19,56.41,56.41,0,0,1-.5,8.08,18.22,18.22,0,0,1-2.12,6.28,14.22,14.22,0,0,1-5.06,5.47,15.61,15.61,0,0,1-8.31,2h-4.7v27.91h-9.21Zm9.21,33.93h4.43a8.62,8.62,0,0,0,4.34-.9,5.5,5.5,0,0,0,2.26-2.46,10.46,10.46,0,0,0,.86-3.77q.14-2.21.14-4.92,0-2.51-.14-4.77a12.29,12.29,0,0,0-.81-3.91,5.58,5.58,0,0,0-2.12-2.61,7.54,7.54,0,0,0-4.15-1h-4.79Z"/><path class="cls-2" d="M136,109h9.21v10.24L136,126.65Z"/><path class="cls-2" d="M182.36,129.56h-9.21v-2.31a11.87,11.87,0,0,0-1.49-6.07,5.33,5.33,0,0,0-5-2.56,5.56,5.56,0,0,0-3.12.8,5.66,5.66,0,0,0-1.9,2.06,9.22,9.22,0,0,0-.95,2.91,21.39,21.39,0,0,0-.27,3.46q0,2.11.14,3.56a6.82,6.82,0,0,0,.68,2.51,5.54,5.54,0,0,0,1.58,1.86,13.92,13.92,0,0,0,2.85,1.61l7,3.11a17.11,17.11,0,0,1,5,3.06,12.36,12.36,0,0,1,2.94,4.12,19,19,0,0,1,1.4,5.42,60.36,60.36,0,0,1,.36,7,40.8,40.8,0,0,1-.81,8.38,18.69,18.69,0,0,1-2.67,6.63,13.15,13.15,0,0,1-4.92,4.37,16,16,0,0,1-7.5,1.61,15.11,15.11,0,0,1-11.2-4.87,17,17,0,0,1-3.3-5.37,18.28,18.28,0,0,1-1.22-6.73v-3.81H160v3.21a9,9,0,0,0,1.49,5.07q1.49,2.26,5,2.26a7.4,7.4,0,0,0,3.66-.75,4.93,4.93,0,0,0,2-2.11,9.41,9.41,0,0,0,.86-3.36q.18-2,.18-4.42,0-2.81-.18-4.62a7.94,7.94,0,0,0-.77-2.91,5,5,0,0,0-1.63-1.81,20.89,20.89,0,0,0-2.75-1.51l-6.59-3q-6-2.71-8-7.18a27.05,27.05,0,0,1-2-11.19,28.63,28.63,0,0,1,1-7.63,18.53,18.53,0,0,1,2.93-6.23,14.29,14.29,0,0,1,4.92-4.17,14.81,14.81,0,0,1,7-1.56,14,14,0,0,1,6.28,1.41,15.69,15.69,0,0,1,4.88,3.71,16.74,16.74,0,0,1,3.12,5.17,16.44,16.44,0,0,1,1.08,5.87Z"/></g></g></svg>