<svg xmlns="http://www.w3.org/2000/svg" viewBox="0 0 213.67 201.09"><defs><style>.cls-1{fill:#ceac5b;}</style></defs><title>isologo-cuadrado_2</title><g id="Capa_2" data-name="Capa 2"><g id="Capa_1-2" data-name="Capa 1"><path class="cls-1" d="M213.67,201.09H0V0H213.67ZM8.75,192.34H204.93V8.75H8.75Z"/><path class="cls-1" d="M28,25.31H41.58q7.84,0,12,4.86t4.15,13.58V77.12q0,10-4.37,14.78T40.77,96.66H28ZM37.16,87H41.4q3.88,0,5.5-2.15t1.62-6.77V43.75A11.72,11.72,0,0,0,47,37.24q-1.53-2.3-5.59-2.3H37.16Z"/><path class="cls-1" d="M65.83,25.31H75V96.66h-9.2Z"/><path class="cls-1" d="M83.14,25.31h27.41v9.62H92.34V55.88h15.87V65.5H92.34V86.44h18.21V96.66H83.14Z"/><path class="cls-1" d="M115.15,42.15a20,20,0,0,1,1.35-7.62,15.92,15.92,0,0,1,3.56-5.46,15.14,15.14,0,0,1,5-3.26,14.5,14.5,0,0,1,11.09,0,15.16,15.16,0,0,1,5,3.26,15.94,15.94,0,0,1,3.56,5.46A20,20,0,0,1,146,42.15v3.61h-9.2V42.15q0-3.71-1.85-5.46a6.33,6.33,0,0,0-8.75,0q-1.85,1.75-1.85,5.46V79.83q0,3.71,1.85,5.46a6.33,6.33,0,0,0,8.75,0q1.85-1.75,1.85-5.46V66.4h-7.3v-9H146V79.83a19.89,19.89,0,0,1-1.35,7.67,16,16,0,0,1-3.56,5.41,15.08,15.08,0,0,1-5,3.26,14.49,14.49,0,0,1-11.09,0,15.06,15.06,0,0,1-5-3.26,16,16,0,0,1-3.56-5.41,19.89,19.89,0,0,1-1.35-7.67Z"/><path class="cls-1" d="M152.74,42.15a20,20,0,0,1,1.35-7.62,15.92,15.92,0,0,1,3.56-5.46,15.14,15.14,0,0,1,5-3.26,14.5,14.5,0,0,1,11.09,0,15.16,15.16,0,0,1,5,3.26,15.94,15.94,0,0,1,3.56,5.46,20,20,0,0,1,1.35,7.62V79.83a19.89,19.89,0,0,1-1.35,7.67,16,16,0,0,1-3.56,5.41,15.08,15.08,0,0,1-5,3.26,14.49,14.49,0,0,1-11.09,0,15.06,15.06,0,0,1-5-3.26,16,16,0,0,1-3.56-5.41,19.89,19.89,0,0,1-1.35-7.67Zm9.2,37.68q0,3.71,1.85,5.46a6.33,6.33,0,0,0,8.75,0q1.85-1.75,1.85-5.46V42.15q0-3.71-1.85-5.46a6.33,6.33,0,0,0-8.75,0q-1.85,1.75-1.85,5.46Z"/><path class="cls-1" d="M28,106H41.58q7.84,0,12,4.86t4.15,13.58v33.37q0,10-4.37,14.78t-12.58,4.76H28Zm9.2,61.73H41.4q3.88,0,5.5-2.15t1.62-6.77V124.46A11.72,11.72,0,0,0,47,117.95q-1.53-2.3-5.59-2.3H37.16Z"/><path class="cls-1" d="M74.67,106h7.66l14.34,71.35h-9.2L84.77,162H72.23l-2.7,15.33h-9.2Zm3.88,20.54h-.18l-4.51,25.86h9.2Z"/><path class="cls-1" d="M100.36,106h13.79a18.65,18.65,0,0,1,6.67,1.1,12.83,12.83,0,0,1,5.23,3.91,15.87,15.87,0,0,1,3.25,6.56,45.53,45.53,0,0,1,.9,10.17,56.31,56.31,0,0,1-.5,8.07,18.18,18.18,0,0,1-2.12,6.26,14.2,14.2,0,0,1-5,5.46,15.59,15.59,0,0,1-8.29,2h-4.69v27.86h-9.2Zm9.2,33.87H114a8.6,8.6,0,0,0,4.33-.9,5.48,5.48,0,0,0,2.25-2.46,10.44,10.44,0,0,0,.86-3.76q.13-2.2.14-4.91,0-2.5-.14-4.76a12.27,12.27,0,0,0-.81-3.91,5.58,5.58,0,0,0-2.12-2.6,7.53,7.53,0,0,0-4.15-1h-4.78Z"/><path class="cls-1" d="M135.71,106h9.2v10.22l-9.2,7.41Z"/><path class="cls-1" d="M182,126.56h-9.2v-2.3a11.85,11.85,0,0,0-1.49-6.06,5.32,5.32,0,0,0-5-2.56,5.56,5.56,0,0,0-3.11.8,5.65,5.65,0,0,0-1.89,2.05,9.22,9.22,0,0,0-.95,2.91,21.39,21.39,0,0,0-.27,3.46q0,2.1.14,3.56a6.83,6.83,0,0,0,.68,2.51,5.54,5.54,0,0,0,1.58,1.85,13.91,13.91,0,0,0,2.84,1.6l7,3.11a17.09,17.09,0,0,1,5,3.06,12.32,12.32,0,0,1,2.93,4.11,18.93,18.93,0,0,1,1.4,5.41,60.24,60.24,0,0,1,.36,7,40.65,40.65,0,0,1-.81,8.37,18.64,18.64,0,0,1-2.66,6.61,13.11,13.11,0,0,1-4.91,4.36,16,16,0,0,1-7.48,1.6,15.08,15.08,0,0,1-11.18-4.86,17,17,0,0,1-3.29-5.36A18.25,18.25,0,0,1,150.4,161v-3.81h9.2v3.21a9,9,0,0,0,1.49,5.06q1.49,2.25,5,2.26a7.37,7.37,0,0,0,3.65-.75,4.91,4.91,0,0,0,2-2.1,9.4,9.4,0,0,0,.86-3.36q.18-2,.18-4.41,0-2.8-.18-4.61a8,8,0,0,0-.77-2.91,5,5,0,0,0-1.62-1.8,21,21,0,0,0-2.75-1.5l-6.58-3q-6-2.7-8-7.16a27,27,0,0,1-2-11.17,28.57,28.57,0,0,1,1-7.62,18.51,18.51,0,0,1,2.93-6.21,14.26,14.26,0,0,1,4.91-4.16,14.81,14.81,0,0,1,6.94-1.55,14,14,0,0,1,6.27,1.4,15.65,15.65,0,0,1,4.87,3.71,16.71,16.71,0,0,1,3.11,5.16,16.42,16.42,0,0,1,1.08,5.86Z"/></g></g></svg>