<svg xmlns="http://www.w3.org/2000/svg" viewBox="0 0 432.56 124"><defs><style>.cls-1,.cls-3{fill:#060000;}.cls-2{fill:#ceac5b;}.cls-3{stroke:#060000;stroke-miterlimit:22.93;stroke-width:2.48px;}</style></defs><title>isologo-rectangulo_3</title><g id="Capa_2" data-name="Capa 2"><g id="Capa_1-2" data-name="Capa 1"><rect class="cls-1" width="432.56" height="124"/><rect class="cls-2" x="9.69" y="9.69" width="413.18" height="104.62"/><path class="cls-3" d="M33.11,22.93H48q8.59,0,13.13,5.32t4.54,14.87V79.67q0,11-4.79,16.19t-13.77,5.21h-14Zm10.07,67.6h4.64q4.24,0,6-2.36t1.78-7.41V43.12A12.84,12.84,0,0,0,53.94,36q-1.68-2.52-6.12-2.52H43.18Z"/><path class="cls-3" d="M74.58,22.93H84.65v78.14H74.58Z"/><path class="cls-3" d="M93.53,22.93h30V33.47H103.6V56.4H121V66.94H103.6V89.87h19.94v11.19h-30Z"/><path class="cls-3" d="M128.58,41.37A21.92,21.92,0,0,1,130.06,33a17.43,17.43,0,0,1,3.9-6,16.55,16.55,0,0,1,5.43-3.57,15.87,15.87,0,0,1,12.14,0A16.58,16.58,0,0,1,157,27a17.46,17.46,0,0,1,3.9,6,21.92,21.92,0,0,1,1.48,8.34v4H152.28v-4q0-4.06-2-6a6.93,6.93,0,0,0-9.58,0q-2,1.92-2,6V82.63q0,4.06,2,6a6.93,6.93,0,0,0,9.58,0q2-1.92,2-6V67.93h-8V58h18.07V82.63a21.8,21.8,0,0,1-1.48,8.4A17.54,17.54,0,0,1,157,97a16.51,16.51,0,0,1-5.43,3.57,15.87,15.87,0,0,1-12.14,0A16.48,16.48,0,0,1,134,97a17.52,17.52,0,0,1-3.9-5.93,21.8,21.8,0,0,1-1.48-8.4Z"/><path class="cls-3" d="M169.75,41.37A21.92,21.92,0,0,1,171.24,33a17.43,17.43,0,0,1,3.9-6,16.55,16.55,0,0,1,5.43-3.57,15.87,15.87,0,0,1,12.14,0A16.57,16.57,0,0,1,198.14,27a17.43,17.43,0,0,1,3.9,6,21.89,21.89,0,0,1,1.48,8.34V82.63A21.78,21.78,0,0,1,202,91a17.51,17.51,0,0,1-3.9,5.93,16.5,16.5,0,0,1-5.43,3.57,15.87,15.87,0,0,1-12.14,0A16.48,16.48,0,0,1,175.14,97a17.52,17.52,0,0,1-3.9-5.93,21.8,21.8,0,0,1-1.48-8.4Zm10.07,41.26q0,4.06,2,6a6.93,6.93,0,0,0,9.58,0q2-1.92,2-6V41.37q0-4.06-2-6a6.93,6.93,0,0,0-9.58,0q-2,1.92-2,6Z"/><path class="cls-3" d="M229,22.93H243.9q8.59,0,13.13,5.32t4.54,14.87V79.67q0,11-4.79,16.19T243,101.07H229Zm10.07,67.6h4.64q4.24,0,6-2.36t1.78-7.41V43.12A12.83,12.83,0,0,0,249.83,36q-1.68-2.52-6.12-2.52h-4.64Z"/><path class="cls-3" d="M280.14,22.93h8.39l15.7,78.14H294.16l-3-16.79H277.47l-3,16.79H264.44Zm4.24,22.5h-.2l-4.94,28.31h10.07Z"/><path class="cls-3" d="M308.27,22.93h15.11a20.42,20.42,0,0,1,7.31,1.21,14,14,0,0,1,5.73,4.28A17.35,17.35,0,0,1,340,35.61a49.84,49.84,0,0,1,1,11.14,61.58,61.58,0,0,1-.54,8.83,19.9,19.9,0,0,1-2.32,6.86,15.55,15.55,0,0,1-5.53,6,17.08,17.08,0,0,1-9.08,2.14h-5.13v30.51H308.27ZM318.35,60h4.84a9.4,9.4,0,0,0,4.74-1,6,6,0,0,0,2.47-2.69,11.42,11.42,0,0,0,.94-4.11q.15-2.41.15-5.38,0-2.74-.15-5.21a13.43,13.43,0,0,0-.89-4.28,6.11,6.11,0,0,0-2.32-2.85,8.25,8.25,0,0,0-4.54-1h-5.23Z"/><path class="cls-3" d="M347,22.93H357V34.13L347,42.25Z"/><path class="cls-3" d="M397.63,45.43H387.56V42.9a13,13,0,0,0-1.63-6.64q-1.63-2.8-5.48-2.8a6.08,6.08,0,0,0-3.41.88A6.17,6.17,0,0,0,375,36.59a10.08,10.08,0,0,0-1,3.18,23.44,23.44,0,0,0-.3,3.79q0,2.31.15,3.9a7.49,7.49,0,0,0,.74,2.74,6.07,6.07,0,0,0,1.73,2A15.16,15.16,0,0,0,379.36,54l7.7,3.4a18.72,18.72,0,0,1,5.43,3.35,13.49,13.49,0,0,1,3.21,4.5,20.7,20.7,0,0,1,1.53,5.93,65.92,65.92,0,0,1,.39,7.63,44.45,44.45,0,0,1-.89,9.16,20.41,20.41,0,0,1-2.91,7.24,14.37,14.37,0,0,1-5.38,4.77,17.53,17.53,0,0,1-8.2,1.76A16.53,16.53,0,0,1,368,96.4a18.57,18.57,0,0,1-3.6-5.87,20,20,0,0,1-1.33-7.35V79h10.07v3.51a9.84,9.84,0,0,0,1.63,5.54q1.63,2.47,5.48,2.47a8.08,8.08,0,0,0,4-.82,5.38,5.38,0,0,0,2.17-2.3,10.31,10.31,0,0,0,.94-3.68q.2-2.19.2-4.83,0-3.07-.2-5a8.67,8.67,0,0,0-.84-3.18,5.45,5.45,0,0,0-1.78-2,22.89,22.89,0,0,0-3-1.65l-7.21-3.29q-6.52-3-8.74-7.85a29.57,29.57,0,0,1-2.22-12.24,31.32,31.32,0,0,1,1.09-8.34,20.25,20.25,0,0,1,3.21-6.8A15.61,15.61,0,0,1,373.24,24a16.21,16.21,0,0,1,7.6-1.7,15.28,15.28,0,0,1,6.86,1.54A17.14,17.14,0,0,1,393,27.87a18.32,18.32,0,0,1,3.41,5.65,18,18,0,0,1,1.18,6.42Z"/></g></g></svg>