<svg xmlns="http://www.w3.org/2000/svg" viewBox="0 0 357.75 261.27"><defs><style>.cls-1{fill:#180807;}.cls-2{fill:#fff;}</style></defs><title>isologo_2</title><g id="Capa_2" data-name="Capa 2"><g id="Capa_1-2" data-name="Capa 1"><path class="cls-1" d="M305.72,97.83H52.57l1.38-4.62a130.69,130.69,0,0,1,250.39,0Z"/><path class="cls-2" d="M62.31,90.64H296a123.51,123.51,0,0,0-233.67,0Z"/><path class="cls-1" d="M179.14,261.27A131,131,0,0,1,56.31,175.21l-1.75-4.82H303.71L302,175.21A131,131,0,0,1,179.14,261.27Z"/><path class="cls-2" d="M64.93,177.58a123.5,123.5,0,0,0,228.42,0Z"/><path class="cls-1" d="M127.93,28.34a4.29,4.29,0,0,1,2.78,2.43,3.17,3.17,0,0,1-.23,3.57,3,3,0,0,1,2.19.53,4.43,4.43,0,0,1,1.46,1.55q2.16,4.14-2.56,6.6l-6,3.12-7.33-14.05,6-3.12A5.26,5.26,0,0,1,127.93,28.34Zm-4.38,8.16,3.64-1.9q2-1,1.19-2.54a2,2,0,0,0-1.1-.92,2.13,2.13,0,0,0-1.78.23l-3.64,1.9Zm3.1,5.94,3.64-1.9a4.62,4.62,0,0,0,1-.68,2.25,2.25,0,0,0,.62-1,1.56,1.56,0,0,0-.13-1.24,1.83,1.83,0,0,0-1.5-1,3.15,3.15,0,0,0-1.86.31l-3.64,1.9Z"/><path class="cls-1" d="M147.27,33.38l-7,2.43L140.07,39l-2.74.95.85-17.06,2.76-1,11.2,12.89-2.76,1Zm-6.63-7.79-.29,7.24,5-1.72Z"/><path class="cls-1" d="M166.7,32.21l-3,.55-5-4.47-2.68.49,1,5.21-2.64.48-2.85-15.61,3.32-.59,3.34-.6a4.84,4.84,0,0,1,4,.85,5.37,5.37,0,0,1,2,3.4,5.89,5.89,0,0,1-.27,3.28,4.13,4.13,0,0,1-2.37,2.26L166.66,32ZM154.6,21.13l.91,5,4-.73a2.23,2.23,0,0,0,1.65-1.06,2.71,2.71,0,0,0,.29-1.87,2.68,2.68,0,0,0-.94-1.65,2.23,2.23,0,0,0-1.91-.41Z"/><path class="cls-1" d="M179.17,17a4.29,4.29,0,0,1,1.46,3.4,3.17,3.17,0,0,1-1.75,3.12,3,3,0,0,1,1.75,1.43,4.43,4.43,0,0,1,.65,2q.16,4.66-5.16,4.84l-6.74.23-.53-15.84,6.74-.22A5.26,5.26,0,0,1,179.17,17Zm-7.48,5.46,4.1-.14q2.23-.07,2.18-1.77a2,2,0,0,0-.59-1.31,2.13,2.13,0,0,0-1.71-.57l-4.1.14Zm.22,6.7L176,29a4.66,4.66,0,0,0,1.18-.19,2.25,2.25,0,0,0,1-.63,1.55,1.55,0,0,0,.42-1.17,1.83,1.83,0,0,0-.92-1.55,3.15,3.15,0,0,0-1.82-.53l-4.1.14Z"/><path class="cls-1" d="M195.1,32.94l-10.58-1.13L186.2,16l10.58,1.13-.31,2.88-7.94-.85-.39,3.62,7.65.82-.3,2.77-7.65-.82-.38,3.56,7.94.85Z"/><path class="cls-1" d="M210.61,36.59l-3-.75-2.71-6.14L202.29,29,201,34.17l-2.6-.65,3.87-15.39,3.27.83,3.29.84a4.84,4.84,0,0,1,3.27,2.42,5.37,5.37,0,0,1,.42,3.92,5.9,5.9,0,0,1-1.6,2.88,4.14,4.14,0,0,1-3.1,1.08l2.85,6.3ZM204.19,21.5,203,26.42l4,1a2.23,2.23,0,0,0,1.95-.28,2.71,2.71,0,0,0,1-1.58,2.68,2.68,0,0,0-.17-1.89,2.23,2.23,0,0,0-1.57-1.17Z"/><path class="cls-1" d="M213.21,37.7l5.47-14.87,2.5.92-5.47,14.88ZM224.59,20l-2.75-1-2.47,2.37,0,.13,2.06.76,3.17-2.14Z"/><path class="cls-1" d="M229.68,41.71,223,38.39l-2.42,2.13-2.6-1.3,12.78-11.33,2.62,1.31-1.37,17-2.62-1.31Zm.93-10.19-5.38,4.86L230,38.73Z"/><path class="cls-1" d="M98.72,212.6l-7.09-7.49,11.19-10.72,7.09,7.49-2,2-5.32-5.62L100,200.69l5.13,5.42-2,1.88L98,202.57,95.48,205l5.32,5.62Z"/><path class="cls-1" d="M115.84,211.72a3.1,3.1,0,0,0-.23-1.76,4,4,0,0,0-1.21-1.65,3.37,3.37,0,0,0-2-.9,1.8,1.8,0,0,0-1.5.69,1.36,1.36,0,0,0-.31,1.1,2.67,2.67,0,0,0,.45,1.13,11.39,11.39,0,0,0,1,1.22,17.07,17.07,0,0,1,1.12,1.31,7.77,7.77,0,0,1,.82,1.37,4.28,4.28,0,0,1,.43,1.46,3.84,3.84,0,0,1-.22,1.54,5.32,5.32,0,0,1-.95,1.67,4.56,4.56,0,0,1-5.07,1.6,7.79,7.79,0,0,1-2.53-1.42q-3.59-2.92-2.26-6.75l2.47.39a3.37,3.37,0,0,0,0,2.37,4.63,4.63,0,0,0,1.46,2,4.14,4.14,0,0,0,2.12,1,1.93,1.93,0,0,0,1.8-.79q1.2-1.48-1-3.79a13.31,13.31,0,0,1-1.34-1.62,7,7,0,0,1-.82-1.66,3.25,3.25,0,0,1-.09-1.87,4.89,4.89,0,0,1,1-1.92,4,4,0,0,1,2.26-1.47,4.45,4.45,0,0,1,2.48.1,7.55,7.55,0,0,1,2.24,1.24q3.16,2.58,2.26,5.81Z"/><path class="cls-1" d="M123.16,215.49l-3.7-2.33,1.41-2.25,9.59,6-1.41,2.25-3.7-2.33-6.84,10.87-2.2-1.38Z"/><path class="cls-1" d="M125.38,231.65l7.07-13.8,2.3,1.17-7.07,13.8Z"/><path class="cls-1" d="M140.23,221.54,135.4,233.4l6.57,2.65-1,2.5-9-3.63,5.85-14.36Z"/><path class="cls-1" d="M144.29,239.54l4.59-14.81,2.47.75-4.59,14.81Z"/><path class="cls-1" d="M161.86,231.74a3.06,3.06,0,0,0-1-1.45,4,4,0,0,0-1.83-.89,3.4,3.4,0,0,0-2.2.14,1.83,1.83,0,0,0-1,1.31A1.34,1.34,0,0,0,156,232a2.62,2.62,0,0,0,.92.78,11.38,11.38,0,0,0,1.46.61A16.89,16.89,0,0,1,160,234a7.65,7.65,0,0,1,1.35.83,4.22,4.22,0,0,1,1,1.09,3.79,3.79,0,0,1,.51,1.46,5.29,5.29,0,0,1-.08,1.91,4.62,4.62,0,0,1-3.78,3.77,7.81,7.81,0,0,1-2.91-.08q-4.53-.91-5.1-4.91l2.38-.81a3.32,3.32,0,0,0,1.08,2.09,4.6,4.6,0,0,0,2.22,1.08,4.18,4.18,0,0,0,2.34-.12,2,2,0,0,0,1.25-1.53q.39-1.86-2.66-2.86a13.16,13.16,0,0,1-1.93-.81,6.93,6.93,0,0,1-1.49-1.08,3.21,3.21,0,0,1-.94-1.61,4.88,4.88,0,0,1,0-2.16,4.08,4.08,0,0,1,1.34-2.35,4.52,4.52,0,0,1,2.26-1.07,7.59,7.59,0,0,1,2.56.05q4,.8,4.67,4.08Z"/><path class="cls-1" d="M170.14,231.66l-4.36-.33.23-2.65,11.31.85-.23,2.65-4.36-.33-1.12,12.8-2.59-.19Z"/><path class="cls-1" d="M188,241.68l-7.2.33-1.09,3-2.81.13,5.67-15.79,2.83-.13L192,244.42l-2.83.13Zm-3.9-9.15-2.34,6.72,5.11-.24Z"/><path class="cls-1" d="M209.09,225.1l2,8.66a7.46,7.46,0,0,1-.45,5.4,5.65,5.65,0,0,1-3.81,2.77,5.77,5.77,0,0,1-4.65-.72,7,7,0,0,1-2.83-4.6l-2-8.66,2.51-.6,2,8.66a4.63,4.63,0,0,0,1.64,2.86,3.22,3.22,0,0,0,2.77.47,3,3,0,0,0,2.16-1.68,5,5,0,0,0,.17-3.28l-2-8.66Z"/><path class="cls-1" d="M224.21,230.47l-3.75-9.74,2.41-1,5.57,14.47-2,.78L216,228.11l3.71,9.63-2.41,1-5.57-14.47,2-.78Z"/><path class="cls-1" d="M232.81,232l-7-13.81,2.28-1.2,7,13.81Z"/><path class="cls-1" d="M239.94,214.1a3.05,3.05,0,0,0-1.74-.33,4,4,0,0,0-1.93.65,3.39,3.39,0,0,0-1.48,1.64,1.83,1.83,0,0,0,.18,1.65,1.34,1.34,0,0,0,.94.64,2.62,2.62,0,0,0,1.21-.08,11.21,11.21,0,0,0,1.47-.58,17.07,17.07,0,0,1,1.59-.66,7.66,7.66,0,0,1,1.55-.36,4.2,4.2,0,0,1,1.51,0,3.79,3.79,0,0,1,1.38.69,5.28,5.28,0,0,1,1.28,1.43,4.63,4.63,0,0,1-.07,5.34,7.81,7.81,0,0,1-2.14,2q-3.88,2.52-7.08,0l1.14-2.24a3.32,3.32,0,0,0,2.23.74,4.6,4.6,0,0,0,2.34-.78,4.18,4.18,0,0,0,1.59-1.72,2,2,0,0,0-.18-2q-1-1.61-3.9-.19a13.2,13.2,0,0,1-1.95.77,6.91,6.91,0,0,1-1.82.27,3.2,3.2,0,0,1-1.8-.5,4.88,4.88,0,0,1-1.49-1.57,4.1,4.1,0,0,1-.68-2.62,4.54,4.54,0,0,1,.87-2.34,7.55,7.55,0,0,1,1.87-1.75q3.42-2.22,6.19-.35Z"/><path class="cls-1" d="M259.52,213.52l-7.89,6.65-9.89-11.94,7.89-6.65,1.81,2.18-5.91,5,2.27,2.75,5.7-4.81,1.74,2.1-5.7,4.81,2.23,2.7,5.91-5Z"/><path class="cls-1" d="M257.19,193.58l1.94-2.1.1.09,2.34,8.57,8.92,1.77.06.06-2,2.14-6.65-1.39,1.87,6.57-2,2.14-.06-.06-2.42-8.81-8.65-1.73-.1-.09,1.94-2.1,6.56,1.42Z"/><polygon class="cls-1" points="357.75 198.67 287.18 198.67 287.18 191.49 343.01 191.49 318.5 160.12 343.01 128.76 313.14 128.76 313.14 121.58 357.75 121.58 327.61 160.12 357.75 198.67"/><path class="cls-1" d="M179.14,220.78a90.36,90.36,0,0,1-78.38-45.62l-2-3.58H259.56l-2,3.58A90.37,90.37,0,0,1,179.14,220.78Zm-72.07-44.41a85.37,85.37,0,0,0,144.14,0Z"/><path class="cls-1" d="M262.73,96.63H95.55l1.55-3.39a90.17,90.17,0,0,1,164.08,0ZM103.09,91.84H255.19a85.38,85.38,0,0,0-152.09,0Z"/><polygon class="cls-1" points="71.41 198.67 0 198.67 30.13 160.12 0 121.58 44.61 121.58 44.61 128.76 14.73 128.76 39.25 160.12 14.73 191.49 71.41 191.49 71.41 198.67"/><path class="cls-1" d="M132.58,63.54c32.35-.43,64.72-1.19,97.08-1.71,1.42,0,1.43-.48,0-.51-32.35-.52-64.73-1.28-97.08-1.71C121.51,59.46,121.49,63.69,132.58,63.54Z"/><path class="cls-1" d="M144.56,53.13c24.45-.43,48.9-1.19,73.35-1.71,1.07,0,1.08-.48,0-.51-24.44-.52-48.91-1.28-73.35-1.71C136.19,49.06,136.18,53.28,144.56,53.13Z"/><path class="cls-1" d="M116.11,85.2c44.22-.43,88.46-1.19,132.67-1.71,1.94,0,1.95-.48,0-.51-44.21-.52-88.46-1.28-132.67-1.71C101,81.12,101,85.35,116.11,85.2Z"/><path class="cls-1" d="M128.05,198.5c36.47-.43,73-1.19,109.44-1.71,1.6,0,1.61-.48,0-.51-36.47-.52-73-1.28-109.44-1.71C115.56,194.43,115.54,198.65,128.05,198.5Z"/><path class="cls-1" d="M118.39,187.38c42.63-.43,85.27-1.19,127.9-1.71,1.87,0,1.88-.48,0-.51-42.62-.52-85.28-1.28-127.9-1.71C103.79,183.3,103.77,187.53,118.39,187.38Z"/><path class="cls-1" d="M297.18,183.05c5.54-.43,11.08-1.19,16.62-1.71.24,0,.24-.48,0-.51-5.54-.52-11.08-1.28-16.62-1.71C295.29,179,295.28,183.2,297.18,183.05Z"/><path class="cls-1" d="M295,188.74c6.27-.43,12.55-1.19,18.82-1.71a.26.26,0,0,0,0-.51c-6.27-.52-12.55-1.28-18.82-1.71C292.81,184.66,292.81,188.88,295,188.74Z"/><path class="cls-1" d="M62.43,184.81c-6.07.43-12.14,1.19-18.21,1.71a.26.26,0,0,0,0,.51c6.07.52,12.14,1.28,18.21,1.71C64.51,188.88,64.51,184.66,62.43,184.81Z"/><path class="cls-1" d="M63,179.12c-6.27.43-12.55,1.19-18.82,1.71a.26.26,0,0,0,0,.51c6.27.52,12.55,1.28,18.82,1.71C65.19,183.2,65.2,179,63,179.12Z"/><path class="cls-1" d="M122.67,74.69C162.77,74.25,202.89,73.5,243,73c1.76,0,1.77-.48,0-.51-40.1-.52-80.22-1.28-120.32-1.71C108.94,70.61,108.92,74.83,122.67,74.69Z"/><path class="cls-1" d="M142.22,209.95c26.75-.43,53.52-1.19,80.27-1.71,1.18,0,1.18-.48,0-.51-26.75-.52-53.52-1.28-80.27-1.71C133.06,205.87,133,210.09,142.22,209.95Z"/><rect class="cls-1" x="40.43" y="90.72" width="276.36" height="86.93"/><rect class="cls-2" x="47.61" y="97.9" width="261.99" height="72.56"/><path class="cls-1" d="M60.35,108.41h10q5.74,0,8.77,3.55t3,9.93V146.3q0,7.33-3.2,10.81t-9.2,3.48H60.35Zm6.73,45.15h3.1q2.83,0,4-1.58A8.26,8.26,0,0,0,75.38,147V121.89a8.57,8.57,0,0,0-1.12-4.76q-1.12-1.69-4.09-1.69h-3.1Z"/><path class="cls-1" d="M88,108.41h6.73v52.18H88Z"/><path class="cls-1" d="M100.7,108.41h20v7H107.43v15.32H119v7H107.43v15.32h13.32v7.48h-20Z"/><path class="cls-1" d="M124.11,120.72a14.63,14.63,0,0,1,1-5.57,11.64,11.64,0,0,1,2.6-4,11.06,11.06,0,0,1,3.63-2.38,10.6,10.6,0,0,1,8.11,0,11.08,11.08,0,0,1,3.63,2.38,11.66,11.66,0,0,1,2.6,4,14.63,14.63,0,0,1,1,5.57v2.64h-6.73v-2.64a5.28,5.28,0,0,0-1.35-4,4.63,4.63,0,0,0-6.4,0,5.28,5.28,0,0,0-1.35,4v27.56a5.27,5.27,0,0,0,1.35,4,4.63,4.63,0,0,0,6.4,0,5.28,5.28,0,0,0,1.35-4v-9.82h-5.34v-6.6h12.07v16.42a14.55,14.55,0,0,1-1,5.61,11.71,11.71,0,0,1-2.6,4,11,11,0,0,1-3.63,2.38,10.6,10.6,0,0,1-8.11,0,11,11,0,0,1-3.63-2.38,11.69,11.69,0,0,1-2.6-4,14.55,14.55,0,0,1-1-5.61Z"/><path class="cls-1" d="M151.6,120.72a14.63,14.63,0,0,1,1-5.57,11.64,11.64,0,0,1,2.6-4,11.06,11.06,0,0,1,3.63-2.38,10.6,10.6,0,0,1,8.11,0,11.08,11.08,0,0,1,3.63,2.38,11.66,11.66,0,0,1,2.6,4,14.63,14.63,0,0,1,1,5.57v27.56a14.55,14.55,0,0,1-1,5.61,11.71,11.71,0,0,1-2.6,4,11,11,0,0,1-3.63,2.38,10.6,10.6,0,0,1-8.11,0,11,11,0,0,1-3.63-2.38,11.69,11.69,0,0,1-2.6-4,14.55,14.55,0,0,1-1-5.61Zm6.73,27.56a5.27,5.27,0,0,0,1.35,4,4.63,4.63,0,0,0,6.4,0,5.28,5.28,0,0,0,1.35-4V120.72a5.28,5.28,0,0,0-1.35-4,4.63,4.63,0,0,0-6.4,0,5.28,5.28,0,0,0-1.35,4Z"/><path class="cls-1" d="M185.63,108.41h10q5.74,0,8.77,3.55t3,9.93V146.3q0,7.33-3.2,10.81t-9.2,3.48h-9.36Zm6.73,45.15h3.1q2.83,0,4-1.58a8.26,8.26,0,0,0,1.19-4.95V121.89a8.57,8.57,0,0,0-1.12-4.76q-1.12-1.69-4.09-1.69h-3.1Z"/><path class="cls-1" d="M219.79,108.41h5.6l10.48,52.18h-6.73l-2-11.21H218l-2,11.21H209.3Zm2.84,15h-.13l-3.3,18.91h6.73Z"/><path class="cls-1" d="M238.58,108.41h10.09a13.63,13.63,0,0,1,4.88.81,9.39,9.39,0,0,1,3.82,2.86,11.6,11.6,0,0,1,2.37,4.8,33.31,33.31,0,0,1,.66,7.44,41.19,41.19,0,0,1-.36,5.9,13.3,13.3,0,0,1-1.55,4.58,10.38,10.38,0,0,1-3.69,4,11.4,11.4,0,0,1-6.07,1.43H245.3v20.38h-6.73Zm6.73,24.77h3.23a6.29,6.29,0,0,0,3.17-.66,4,4,0,0,0,1.65-1.8A7.63,7.63,0,0,0,254,128q.1-1.61.1-3.59t-.1-3.48a9,9,0,0,0-.59-2.86,4.08,4.08,0,0,0-1.55-1.91,5.51,5.51,0,0,0-3-.7H245.3Z"/><path class="cls-1" d="M264.43,108.41h6.73v7.48l-6.73,5.42Z"/><path class="cls-1" d="M296.67,123.43h-6.73v-1.69a8.66,8.66,0,0,0-1.09-4.43,3.89,3.89,0,0,0-3.66-1.87,4.06,4.06,0,0,0-2.28.59,4.13,4.13,0,0,0-1.38,1.5,6.75,6.75,0,0,0-.69,2.13,15.68,15.68,0,0,0-.2,2.53q0,1.54.1,2.6a5,5,0,0,0,.5,1.83,4,4,0,0,0,1.15,1.36,10.13,10.13,0,0,0,2.08,1.17l5.14,2.27a12.51,12.51,0,0,1,3.63,2.24,9,9,0,0,1,2.14,3,13.84,13.84,0,0,1,1,4,44.18,44.18,0,0,1,.26,5.09,29.75,29.75,0,0,1-.59,6.12,13.65,13.65,0,0,1-1.95,4.84,9.59,9.59,0,0,1-3.59,3.19,11.71,11.71,0,0,1-5.47,1.17,11,11,0,0,1-8.18-3.55,12.4,12.4,0,0,1-2.41-3.92,13.34,13.34,0,0,1-.89-4.91v-2.79h6.73v2.35a6.57,6.57,0,0,0,1.09,3.7,4.05,4.05,0,0,0,3.66,1.65,5.39,5.39,0,0,0,2.67-.55,3.59,3.59,0,0,0,1.45-1.54,6.88,6.88,0,0,0,.63-2.46q.13-1.47.13-3.22,0-2.05-.13-3.37a5.82,5.82,0,0,0-.56-2.13,3.64,3.64,0,0,0-1.19-1.32,15.33,15.33,0,0,0-2-1.1l-4.81-2.2q-4.35-2-5.84-5.24a19.75,19.75,0,0,1-1.48-8.17,20.91,20.91,0,0,1,.73-5.57,13.53,13.53,0,0,1,2.14-4.54,10.43,10.43,0,0,1,3.59-3,10.82,10.82,0,0,1,5.08-1.14,10.21,10.21,0,0,1,4.58,1,11.44,11.44,0,0,1,3.56,2.71,12.22,12.22,0,0,1,2.28,3.77,12,12,0,0,1,.79,4.29Z"/></g></g></svg>